<?xml version="1.0" encoding="UTF-8"?>
<svg version="1.1" xmlns="http://www.w3.org/2000/svg" width="1052" height="1051">
<path d="M0 0 C347.16 0 694.32 0 1052 0 C1052 346.83 1052 693.66 1052 1051 C704.84 1051 357.68 1051 0 1051 C0 704.17 0 357.34 0 0 Z " fill="#F6F6F6" transform="translate(0,0)"/>
<path d="M0 0 C0.92425781 -0.00322266 1.84851563 -0.00644531 2.80078125 -0.00976562 C12.01087584 0.06270293 19.16859005 2.68079869 26.5 8.3125 C33.658853 15.79505766 39.24124381 26.23713537 39.625 36.73046875 C39.563125 38.00857422 39.563125 38.00857422 39.5 39.3125 C40.51578125 38.98636719 41.5315625 38.66023438 42.578125 38.32421875 C50.81963562 35.69936095 59.04982044 33.1915245 67.5 31.3125 C68.19990051 31.15024429 68.89980103 30.98798859 69.62091064 30.82081604 C75.75175125 29.48091565 81.57040793 28.99219855 87.8359375 28.9765625 C89.27509018 28.9665773 89.27509018 28.9665773 90.74331665 28.95639038 C92.76521917 28.94632709 94.78715449 28.94157138 96.80908203 28.94189453 C99.83294695 28.93756028 102.85530232 28.90127986 105.87890625 28.86328125 C123.64820916 28.75797562 139.86070614 31.55101956 156.625 37.5 C157.66269531 37.85513672 158.70039062 38.21027344 159.76953125 38.57617188 C167.02678571 41.07589286 167.02678571 41.07589286 169.5 42.3125 C169.5 42.9725 169.5 43.6325 169.5 44.3125 C170.04599854 44.40756836 170.59199707 44.50263672 171.15454102 44.60058594 C177.11107269 45.76302214 182.0962713 47.7110908 187.4375 50.5625 C188.65651001 51.20916626 188.65651001 51.20916626 189.90014648 51.86889648 C203.02209236 59.09413548 214.68643246 69.00341938 225.5 79.3125 C226.06332031 79.83585937 226.62664063 80.35921875 227.20703125 80.8984375 C228.35153029 81.98933741 229.43642355 83.1425659 230.5 84.3125 C230.5 84.9725 230.5 85.6325 230.5 86.3125 C231.07234375 86.36535156 231.6446875 86.41820312 232.234375 86.47265625 C235.56402113 87.70692163 236.73291153 89.8775166 238.75 92.75 C239.80960938 94.23306641 239.80960938 94.23306641 240.890625 95.74609375 C242.5 98.3125 242.5 98.3125 242.5 100.3125 C243.49 100.6425 244.48 100.9725 245.5 101.3125 C245.83 102.9625 246.16 104.6125 246.5 106.3125 C247.49 106.6425 248.48 106.9725 249.5 107.3125 C250.75854492 108.98657227 250.75854492 108.98657227 251.98046875 111.12890625 C252.42197266 111.89267578 252.86347656 112.65644531 253.31835938 113.44335938 C253.77017578 114.24580078 254.22199219 115.04824219 254.6875 115.875 C255.15091797 116.68130859 255.61433594 117.48761719 256.09179688 118.31835938 C257.23603246 120.31192446 258.37163231 122.30992431 259.5 124.3125 C263.97952523 123.47750467 265.81923659 120.99576858 268.5625 117.5625 C269.54007821 116.37216059 270.51795114 115.18206317 271.49609375 113.9921875 C272.24221924 113.07518066 272.24221924 113.07518066 273.00341797 112.13964844 C275.33830302 109.28903184 277.73429455 106.49128358 280.125 103.6875 C283.4373853 99.78274533 286.7082089 95.84906454 289.9375 91.875 C293.89508188 87.01120975 297.96542446 82.25368769 302.05834961 77.50415039 C305.08945289 73.97951081 308.06985316 70.42210118 311 66.8125 C314.93443256 61.96573525 318.98554574 57.22970745 323.06079102 52.50170898 C326.07245009 49.00014698 329.0305895 45.46463443 331.9375 41.875 C336.09615197 36.7485163 340.41291767 31.77168692 344.7644043 26.80908203 C347.90187897 23.21562463 350.87516126 19.56016551 353.75 15.75 C357.94910316 10.40082399 363.01758592 6.47330469 369.5 4.3125 C379.08829129 3.55066074 387.48634239 3.31843946 395.5 9.3125 C398.59264737 11.95317726 401.56801184 14.67608236 404.50390625 17.48828125 C407.18728855 20.05098461 409.98504792 22.42021484 412.875 24.75 C443.53577824 49.50935493 443.53577824 49.50935493 445.4375 62.1875 C446.340017 77.3220159 435.15401999 87.95848793 425.94824219 98.63037109 C423.57529932 101.38653704 421.22470117 104.1615183 418.875 106.9375 C418.41496582 107.48011475 417.95493164 108.02272949 417.48095703 108.58178711 C414.65701919 111.91994503 411.87854562 115.29079043 409.125 118.6875 C405.55663938 123.07003202 401.8945921 127.36010264 398.1875 131.625 C397.63481445 132.26091064 397.08212891 132.89682129 396.51269531 133.55200195 C394.31709838 136.07642812 392.12048608 138.59996907 389.92333984 141.12304688 C383.91917908 148.02964426 378.10807887 155.02874556 372.5078125 162.26708984 C368.85626665 166.94893097 364.93145517 171.3209893 360.89453125 175.67578125 C357.73468299 179.15522264 354.79026775 182.78736621 351.8359375 186.44140625 C342.58601833 197.81045406 332.93098037 208.86225655 323.35546875 219.95703125 C318.32841847 225.78929027 313.38904814 231.6578242 308.61328125 237.69921875 C304.53571512 242.74153251 300.2625544 247.61980503 296.03027344 252.53222656 C290.31344116 259.18301484 284.64904739 265.87551442 279.125 272.6875 C274.95843577 277.80983524 270.63798719 282.78667378 266.29956055 287.76293945 C262.37510903 292.27465363 258.56573217 296.86575555 254.80078125 301.51171875 C251.12227613 305.98962736 247.32960344 310.36849295 243.55078125 314.76171875 C237.23750339 322.10213301 230.97099793 329.47772872 224.875 337 C221.29777821 341.39832786 217.55402459 345.60548854 213.73828125 349.796875 C210.69602814 353.21609141 207.8313021 356.76675161 204.953125 360.32421875 C202.16548319 363.71999261 199.30817783 367.04947703 196.4375 370.375 C193.07046474 374.27839108 189.75222357 378.19891648 186.5625 382.25 C182.64733039 387.20921484 178.5031573 391.95302204 174.35009766 396.71240234 C170.40719213 401.23994952 166.58089293 405.84704711 162.80078125 410.51171875 C159.11993587 414.9924762 155.32486807 419.37409186 151.54296875 423.76953125 C147.28648075 428.71808716 143.07832994 433.7072854 138.86767578 438.69482422 C137.47540583 440.34158979 136.07994527 441.98560067 134.68359375 443.62890625 C130.36501199 448.71478673 126.07524599 453.81532136 121.875 459 C119.00573443 462.52786923 116.06094307 465.94969922 113 469.3125 C108.294059 474.48413308 103.88945562 479.87172372 99.5 485.3125 C92.89348857 493.49723361 86.06874423 501.46608221 79.1640625 509.3984375 C72.50434527 517.05867563 65.90662044 524.74049234 59.609375 532.703125 C55.04229588 538.35277102 50.2466058 543.81372392 45.5 549.3125 C36.99912991 559.17024589 36.99912991 559.17024589 28.6875 569.1875 C27.61242187 570.50234375 27.61242187 570.50234375 26.515625 571.84375 C25.22747955 573.42147853 23.94557977 575.00434063 22.671875 576.59375 C16.649783 583.86366287 9.83234262 588.61772642 0.19140625 589.53125 C-14.47686269 590.08045196 -23.20015812 582.81334145 -33.5 573.3125 C-34.97483148 571.96171976 -36.44966793 570.6109449 -37.92480469 569.26049805 C-39.44162333 567.87122339 -40.95729684 566.48070981 -42.47265625 565.08984375 C-50.93106227 557.17981861 -50.93106227 557.17981861 -59.75 549.6875 C-62.06500663 547.68817609 -63.90384955 545.7533808 -65.875 543.4375 C-68.81160166 539.99214498 -71.95010507 537.0825847 -75.3984375 534.16015625 C-77.70251105 532.1344559 -79.84751158 529.99827433 -82 527.8125 C-84.72829407 525.04689592 -87.48516834 522.39962969 -90.4375 519.875 C-94.53058303 516.3678056 -98.27224704 512.55524842 -102.05859375 508.72265625 C-104.77202727 506.04395468 -107.60777023 503.56641882 -110.50390625 501.08984375 C-113.56803813 498.36150715 -116.40481832 495.41582092 -119.28515625 492.49609375 C-121.27659461 490.53275329 -123.31302578 488.69170331 -125.4375 486.875 C-129.53058303 483.3678056 -133.27224704 479.55524842 -137.05859375 475.72265625 C-139.77202727 473.04395468 -142.60777023 470.56641882 -145.50390625 468.08984375 C-148.56666727 465.36272777 -151.40223493 462.41845363 -154.28125 459.5 C-156.29430632 457.51529658 -158.35446403 455.65153084 -160.5 453.8125 C-164.29358733 450.56085372 -167.77392647 447.05536906 -171.28125 443.5 C-173.29430632 441.51529658 -175.35446403 439.65153084 -177.5 437.8125 C-181.29358733 434.56085372 -184.77392647 431.05536906 -188.28125 427.5 C-190.29430632 425.51529658 -192.35446403 423.65153084 -194.5 421.8125 C-198.29358733 418.56085372 -201.77392647 415.05536906 -205.28125 411.5 C-207.29430632 409.51529658 -209.35446403 407.65153084 -211.5 405.8125 C-215.29078785 402.56325327 -218.76878424 399.06063968 -222.2734375 395.5078125 C-224.94244727 392.87626252 -227.74490152 390.44162017 -230.58984375 388.00390625 C-233.15125187 385.73582912 -235.52460533 383.30593262 -237.91015625 380.85546875 C-239.58534934 379.15267798 -239.58534934 379.15267798 -242.125 377.4375 C-246.39109445 373.62046813 -249.53502071 367.99633404 -250.5 362.3125 C-250.87823451 350.47211533 -247.11089861 340.62869415 -239.08984375 331.91015625 C-238.56519531 331.38292969 -238.04054688 330.85570312 -237.5 330.3125 C-236.75621094 329.56484375 -236.01242187 328.8171875 -235.24609375 328.046875 C-233.23260683 326.04198048 -231.21546408 324.04112126 -229.1953125 322.04296875 C-223.61852372 316.51575831 -218.11111068 311.0062184 -212.9921875 305.046875 C-206.78179475 297.82851274 -200.63034328 293.35594776 -191.5 290.3125 C-182.40769627 289.68544457 -175.11726472 292.36103287 -167.5 297.3125 C-164.62915039 299.85864258 -164.62915039 299.85864258 -161.84765625 302.70703125 C-161.34382919 303.21747482 -160.84000214 303.7279184 -160.32090759 304.25382996 C-158.727396 305.87050364 -157.14446171 307.49702992 -155.5625 309.125 C-153.47396147 311.26037106 -151.38097645 313.39130766 -149.28515625 315.51953125 C-148.78214996 316.03121857 -148.27914368 316.54290588 -147.76089478 317.07009888 C-144.3615297 320.50541831 -140.8479578 323.73831937 -137.16967773 326.86987305 C-134.82187957 328.89840637 -132.66362181 331.09040192 -130.5 333.3125 C-127.58373397 336.26433025 -124.65394165 339.11638859 -121.5 341.8125 C-117.4251665 345.29582542 -113.70707008 349.09068708 -109.94140625 352.90234375 C-107.22797273 355.58104532 -104.39222977 358.05858118 -101.49609375 360.53515625 C-98.4347036 363.26105159 -95.60034836 366.20391358 -92.72265625 369.12109375 C-90.0729856 371.73351068 -87.28827197 374.14552621 -84.46484375 376.56640625 C-82.39179676 378.40865675 -80.44564198 380.33651662 -78.5 382.3125 C-75.98044611 384.87119259 -73.41881218 387.29420611 -70.6875 389.625 C-66.78450191 392.97590406 -63.18526006 396.59726894 -59.57592773 400.25610352 C-56.28682264 403.57266071 -52.87856243 406.67226378 -49.328125 409.703125 C-46.85552268 411.87986038 -44.57693362 414.22514771 -42.26953125 416.57421875 C-40.46989519 418.34207316 -38.60398088 419.98504542 -36.6875 421.625 C-32.56609921 425.17243395 -28.78455521 429.01211052 -24.96484375 432.87890625 C-22.14368317 435.66429935 -19.21153259 438.27368212 -16.19140625 440.83984375 C-14.55216211 442.26708403 -13.01774524 443.75762338 -11.5 445.3125 C-7.31834939 443.71334145 -4.73238282 440.62392972 -1.8125 437.375 C-1.28140625 436.79161865 -0.7503125 436.2082373 -0.203125 435.60717773 C3.73101347 431.25177836 7.47997131 426.76677483 11.15625 422.19140625 C13.8793983 418.84647243 16.68251051 415.5779456 19.5 412.3125 C23.05480201 408.18806102 26.56793099 404.0404111 30 399.8125 C33.93443256 394.96573525 37.98554574 390.22970745 42.06079102 385.50170898 C45.07245009 382.00014698 48.0305895 378.46463443 50.9375 374.875 C55.03721236 369.82634879 59.28258655 364.91654779 63.55126953 360.01123047 C70.37878899 352.16247526 77.17665967 344.29035402 83.625 336.125 C87.01009979 331.84872088 90.62012768 327.82636333 94.29296875 323.796875 C97.08486718 320.65413623 99.67222117 317.37496537 102.2734375 314.07421875 C105.42807417 310.16136238 108.71640463 306.36869623 112.00048828 302.56445312 C115.1212607 298.9421104 118.17982105 295.28003324 121.1875 291.5625 C124.03458501 288.0536601 126.95812552 284.65383363 130 281.3125 C134.70592923 276.14087985 139.11071508 270.75338443 143.5 265.3125 C147.90817841 259.84819552 152.33350271 254.44135208 157.0625 249.25 C160.64837933 245.31171529 163.98698621 241.24235906 167.28515625 237.0625 C169.87936093 233.84147691 172.55339848 230.69787205 175.25 227.5625 C175.75515137 226.9749292 176.26030273 226.3873584 176.78076172 225.78198242 C179.43497502 222.69960283 182.09689214 219.62398596 184.76171875 216.55078125 C185.2937793 215.93493164 185.82583984 215.31908203 186.37402344 214.68457031 C187.38117317 213.51889358 188.39075518 212.35531169 189.40332031 211.19433594 C190.33083077 210.1198676 191.24734243 209.03579307 192.15185547 207.94189453 C193.07363386 206.82781467 194.022268 205.73556214 194.99267578 204.66357422 C197.03421676 202.21696 198.40952639 200.40290584 198.67773438 197.17041016 C198.19609603 191.86206759 196.65993803 186.7746668 194.9375 181.75 C194.67428955 180.97696533 194.4110791 180.20393066 194.13989258 179.4074707 C188.33266915 162.93096682 179.72492771 148.28346891 167.4375 135.8125 C166.87208496 135.23677246 166.30666992 134.66104492 165.72412109 134.06787109 C160.59511586 129.04513589 154.93121128 125.45724198 148.5 122.3125 C148.5 121.6525 148.5 120.9925 148.5 120.3125 C147.82195313 120.13074219 147.14390625 119.94898438 146.4453125 119.76171875 C130.05863539 115.33595416 130.05863539 115.33595416 122.5 112.3125 C116.44442645 110.80973075 110.25160484 111.12649931 104.05517578 111.12719727 C101.90246293 111.12502768 99.75027748 111.1068945 97.59765625 111.08789062 C87.46139956 111.04598135 78.08487719 112.14539223 68.3125 114.9375 C67.39082031 115.19789063 66.46914063 115.45828125 65.51953125 115.7265625 C64.51986328 116.01660156 64.51986328 116.01660156 63.5 116.3125 C63.665 117.405625 63.83 118.49875 64 119.625 C65.51033683 131.99225086 64.43050509 142.80504925 57.1875 153.1953125 C51.88314364 159.85458597 44.72948118 164.26660376 36.375 165.9375 C23.68944819 167.16513405 13.42160551 165.32397476 3.24609375 157.03125 C-2.75014569 151.1289114 -5.57738746 144.39084568 -7.5 136.3125 C-10.87032526 136.3125 -14.10736399 137.29629569 -17.375 138.0625 C-18.14585937 138.24296875 -18.91671875 138.4234375 -19.7109375 138.609375 C-25.04371932 139.88924264 -30.17252696 141.49517065 -35.34765625 143.3125 C-39.88898765 144.75312062 -44.50769507 145.76397261 -49.15234375 146.8125 C-53.50273757 147.80687573 -57.74632563 148.9496206 -62 150.3125 C-66.78911814 151.84169861 -71.59907172 153.08005142 -76.5 154.1875 C-85.85343037 156.30742483 -95.03033482 158.97880072 -104.23583984 161.65917969 C-107.86874385 162.70744916 -111.51914378 163.68770353 -115.171875 164.6640625 C-117.6140252 165.3442587 -120.0214563 166.10764021 -122.4375 166.875 C-127.24016242 168.34740533 -132.06683982 169.15350482 -137.03125 169.8828125 C-139.49360596 170.18962799 -139.49360596 170.18962799 -141.5 171.3125 C-143.49960012 171.352492 -145.50047242 171.35596799 -147.5 171.3125 C-147.5 171.9725 -147.5 172.6325 -147.5 173.3125 C-148.20640625 173.45945312 -148.9128125 173.60640625 -149.640625 173.7578125 C-157.52340712 175.48093321 -165.17822018 177.67404038 -172.88793945 180.04052734 C-179.6136467 182.08906328 -186.372813 183.83990575 -193.21484375 185.453125 C-196.10887817 186.21018513 -198.75879207 187.12655046 -201.5 188.3125 C-201.17 189.22 -200.84 190.1275 -200.5 191.0625 C-197.77808079 200.88507802 -199.23448632 211.16228517 -203.5 220.3125 C-208.20571492 227.22048951 -213.86759034 231.96983884 -221.5 235.3125 C-222.221875 235.67601562 -222.94375 236.03953125 -223.6875 236.4140625 C-231.45077416 238.8939973 -243.15522472 238.86455811 -250.6875 235.6875 C-252.66015625 234.55859375 -252.66015625 234.55859375 -254.5 233.3125 C-255.17933594 232.91160156 -255.85867188 232.51070312 -256.55859375 232.09765625 C-265.30906775 226.39082538 -269.76961899 217.10974949 -272.5 207.3125 C-277.35998287 208.71671636 -282.16902865 210.13536984 -286.875 212 C-290.5 213.3125 -290.5 213.3125 -294.5 213.3125 C-294.83 214.3025 -295.16 215.2925 -295.5 216.3125 C-297.0234375 217.48046875 -297.0234375 217.48046875 -298.875 218.5 C-299.48085938 218.84417969 -300.08671875 219.18835938 -300.7109375 219.54296875 C-302.5 220.3125 -302.5 220.3125 -305.5 220.3125 C-305.83 221.3025 -306.16 222.2925 -306.5 223.3125 C-307.49 223.6425 -308.48 223.9725 -309.5 224.3125 C-311.11070961 225.93939134 -311.11070961 225.93939134 -312.6875 227.9375 C-315.09667612 230.8123152 -317.47275029 233.14974038 -320.4375 235.4375 C-325.60579968 239.8260562 -328.49615545 245.61939231 -331.57714844 251.54003906 C-332.43096307 253.17990525 -333.31199492 254.80552292 -334.1953125 256.4296875 C-337.92161088 263.48905678 -340.49274029 270.59227036 -342.5 278.3125 C-342.726875 279.158125 -342.95375 280.00375 -343.1875 280.875 C-346.01428783 293.43850148 -347.40940919 315.49368161 -341.5 327.3125 C-341.36584528 329.9848621 -341.45681459 332.63500488 -341.5 335.3125 C-340.84 335.3125 -340.18 335.3125 -339.5 335.3125 C-339.17 339.2725 -338.84 343.2325 -338.5 347.3125 C-337.84 347.3125 -337.18 347.3125 -336.5 347.3125 C-336.5 349.6225 -336.5 351.9325 -336.5 354.3125 C-335.51 354.6425 -334.52 354.9725 -333.5 355.3125 C-331.41234589 361.35570928 -331.26584003 366.96416295 -331.5 373.3125 C-330.84 373.3125 -330.18 373.3125 -329.5 373.3125 C-329.5 375.6225 -329.5 377.9325 -329.5 380.3125 C-328.84 380.3125 -328.18 380.3125 -327.5 380.3125 C-327.34442627 380.9202124 -327.18885254 381.5279248 -327.02856445 382.15405273 C-323.11485726 397.41149621 -323.11485726 397.41149621 -318.8125 412.5625 C-318.60898926 413.24812012 -318.40547852 413.93374023 -318.19580078 414.64013672 C-317.31404961 417.6027337 -316.42385705 420.56255346 -315.5234375 423.51953125 C-313.92092233 428.99354333 -313.17693487 433.60501609 -313.5 439.3125 C-312.84 439.3125 -312.18 439.3125 -311.5 439.3125 C-311.04560547 441.1996875 -311.04560547 441.1996875 -310.58203125 443.125 C-308.54706275 451.47304233 -306.46112522 459.76044261 -303.8125 467.9375 C-302.21656663 472.86544262 -300.92866998 477.71820438 -300.0078125 482.81640625 C-299.03115217 487.61706744 -297.547705 492.28657502 -296.17431641 496.98583984 C-292.32328755 510.2734231 -288.60506659 523.59023534 -285.328125 537.03125 C-284.62812745 539.80482521 -283.8549375 542.52147608 -283 545.25 C-281.62587839 549.66204452 -280.5905807 554.12307312 -279.5625 558.625 C-278.17189927 564.6906241 -276.53561042 570.59409196 -274.63671875 576.5234375 C-272.80353397 582.63405342 -271.25715517 588.8199377 -269.69384766 595.00439453 C-268.55591588 599.4608494 -267.3584464 603.8289725 -265.828125 608.16796875 C-264.68222641 611.50386489 -264.16203972 614.31410668 -264.3125 617.875 C-264.35310547 619.14537109 -264.35310547 619.14537109 -264.39453125 620.44140625 C-264.42933594 621.05886719 -264.46414063 621.67632813 -264.5 622.3125 C-263.84 622.3125 -263.18 622.3125 -262.5 622.3125 C-262.5 624.6225 -262.5 626.9325 -262.5 629.3125 C-261.84 629.3125 -261.18 629.3125 -260.5 629.3125 C-260.5 631.6225 -260.5 633.9325 -260.5 636.3125 C-259.84 636.3125 -259.18 636.3125 -258.5 636.3125 C-257.53929566 639.19461302 -257.39418117 641.01100044 -257.4375 644 C-257.44652344 644.80824219 -257.45554687 645.61648438 -257.46484375 646.44921875 C-257.48224609 647.37154297 -257.48224609 647.37154297 -257.5 648.3125 C-256.84 648.3125 -256.18 648.3125 -255.5 648.3125 C-255.5 650.6225 -255.5 652.9325 -255.5 655.3125 C-254.84 655.3125 -254.18 655.3125 -253.5 655.3125 C-253.5 657.6225 -253.5 659.9325 -253.5 662.3125 C-252.84 662.3125 -252.18 662.3125 -251.5 662.3125 C-251.22027344 663.42625 -250.94054687 664.54 -250.65234375 665.6875 C-245.96165723 683.77188223 -239.20679537 699.8804875 -227.0390625 714.28125 C-225.5 716.3125 -225.5 716.3125 -225.5 718.3125 C-224.84 718.3125 -224.18 718.3125 -223.5 718.3125 C-222.14431259 719.62309803 -220.81599697 720.96205284 -219.5 722.3125 C-196.54300826 741.79115966 -171.42765783 748.41641488 -141.5 746.3125 C-136.70835227 745.76534632 -132.11802074 744.69853624 -127.5 743.3125 C-126.60667969 743.04953125 -125.71335937 742.7865625 -124.79296875 742.515625 C-123.14132053 742.01835457 -121.49263594 741.51109166 -119.84765625 740.9921875 C-117.47040761 740.30393249 -115.12116715 739.82032593 -112.6875 739.375 C-107.67228642 738.43123508 -102.91379382 736.92629333 -98.0546875 735.3828125 C-94.227563 734.23046952 -90.38312293 733.2533856 -86.5 732.3125 C-81.61079899 731.12530498 -76.79942681 729.83311047 -72 728.3125 C-66.64516307 726.61976557 -61.24800682 725.21319215 -55.79516602 723.8828125 C-50.64832284 722.61951314 -45.54006265 721.24373974 -40.4375 719.8125 C-33.91803217 717.98429672 -27.38902086 716.20296707 -20.84375 714.46875 C-17.42455805 713.56134906 -14.00882807 712.64151099 -10.59375 711.71875 C1.3830567 708.48289519 13.36633231 705.27907798 25.37890625 702.17822266 C26.27351563 701.9466748 27.168125 701.71512695 28.08984375 701.4765625 C28.87222412 701.27498535 29.65460449 701.0734082 30.46069336 700.86572266 C32.15712713 700.40551448 33.83245354 699.86834882 35.5 699.3125 C36.89439664 699.24584624 38.29169875 699.22711801 39.6875 699.25 C40.945625 699.270625 42.20375 699.29125 43.5 699.3125 C43.5 698.6525 43.5 697.9925 43.5 697.3125 C44.469375 697.08175781 45.43875 696.85101562 46.4375 696.61328125 C53.58311535 694.88403873 60.63071173 693.01960146 67.625 690.75 C73.65331517 688.80097387 79.65841511 687.37147503 85.875 686.12109375 C90.70108007 685.04458667 95.40013291 683.63858044 100.1328125 682.21435547 C106.44919694 680.31406329 112.80532776 678.60284247 119.18457031 676.92529297 C124.06503271 675.63364803 128.93804464 674.31409286 133.8125 673 C134.92463867 672.70053467 136.03677734 672.40106934 137.18261719 672.0925293 C142.83859349 670.56948683 148.49396028 669.04422369 154.1484375 667.515625 C156.32808585 666.92693836 158.50777305 666.33839556 160.6875 665.75 C161.75452148 665.46181396 162.82154297 665.17362793 163.92089844 664.87670898 C169.25096999 663.44128458 174.58512923 662.02511367 179.9296875 660.64453125 C181.47813354 660.24439819 181.47813354 660.24439819 183.05786133 659.83618164 C184.98921704 659.33886578 186.92129155 658.84432864 188.85424805 658.35327148 C193.04017574 657.27680192 197.15325068 656.12628268 201.2421875 654.72265625 C204.81907486 653.49762459 208.33579837 652.67217809 212.0625 652 C224.89114369 649.30213073 235.91278621 644.51158864 247.00512695 637.56420898 C252.22168249 634.3125 252.22168249 634.3125 255.5 634.3125 C255.5 633.3225 255.5 632.3325 255.5 631.3125 C256.96875 629.734375 256.96875 629.734375 259 628.0625 C259.7321875 627.43988281 260.464375 626.81726563 261.21875 626.17578125 C262.63373436 625.02004916 264.06830762 623.88736219 265.53125 622.79296875 C274.27030092 615.94391098 278.78729642 605.13063245 283.5 595.3125 C284.16 595.3125 284.82 595.3125 285.5 595.3125 C285.62375 594.16136719 285.7475 593.01023437 285.875 591.82421875 C286.41744584 587.48751709 287.38528159 583.3455824 288.5 579.125 C293.96988254 558.05802487 291.08926028 539.33383263 285.0078125 518.7578125 C284.78392853 517.99547302 284.56004456 517.23313354 284.32937622 516.44769287 C283.20033369 512.61282855 282.0489375 508.78751518 280.85400391 504.97265625 C277.81290433 495.02291662 274.72495493 483.80802486 279.0625 473.75 C283.90285345 465.86672212 292.02189832 463.91929599 300.4375 461.75 C301.54472412 461.45407959 302.65194824 461.15815918 303.79272461 460.85327148 C306.00552895 460.26485389 308.2201102 459.68307285 310.43652344 459.10839844 C313.10117916 458.4161146 315.75837111 457.70226512 318.4140625 456.9765625 C335.50114029 452.42142446 335.50114029 452.42142446 343.6875 457.07421875 C351.39852158 462.34230892 354.74421649 472.43918548 356.5 481.3125 C356.53888349 483.64550933 356.5448635 485.97959801 356.5 488.3125 C357.11359375 488.36535156 357.7271875 488.41820312 358.359375 488.47265625 C360.5 489.3125 360.5 489.3125 361.765625 491.68359375 C363.92679893 498.41582206 365.06322756 504.24086508 364.5 511.3125 C365.16 511.3125 365.82 511.3125 366.5 511.3125 C366.5 513.6225 366.5 515.9325 366.5 518.3125 C367.16 518.3125 367.82 518.3125 368.5 518.3125 C368.70496094 519.20453125 368.90992188 520.0965625 369.12109375 521.015625 C369.39050781 522.18609375 369.65992188 523.3565625 369.9375 524.5625 C370.33775391 526.30273438 370.33775391 526.30273438 370.74609375 528.078125 C371.14886423 529.80607298 371.56141292 531.53270942 372.03804016 533.24176025 C372.53037269 535.44864591 372.63375793 537.41896528 372.64526367 539.67871094 C372.65483345 540.96089508 372.65483345 540.96089508 372.66459656 542.26898193 C372.66626579 543.644039 372.66626579 543.644039 372.66796875 545.046875 C372.67129715 545.9988678 372.67462555 546.9508606 372.67805481 547.93170166 C372.68311416 549.94567381 372.68546344 551.95965432 372.68530273 553.97363281 C372.68748204 557.03725218 372.70562854 560.10050715 372.72460938 563.1640625 C372.72754503 565.12499878 372.72952867 567.08593675 372.73046875 569.046875 C372.73765427 569.95548279 372.74483978 570.86409058 372.75224304 571.80023193 C372.73264002 577.32693622 372.01836913 581.99820805 370.5 587.3125 C370.09142521 589.72704518 369.69588535 592.14382733 369.3125 594.5625 C366.49040558 610.49545598 360.06740483 625.11709231 352.5 639.3125 C352.13519531 640.09625 351.77039063 640.88 351.39453125 641.6875 C350.5 643.3125 350.5 643.3125 348.5 644.3125 C348.12875 645.240625 347.7575 646.16875 347.375 647.125 C344.70347401 653.73496121 340.46809051 661.33377299 334.5 665.3125 C334.025625 666.26125 333.55125 667.21 333.0625 668.1875 C331.52462876 671.26324249 330.11836789 673.11644951 327.5 675.3125 C326.84 675.3125 326.18 675.3125 325.5 675.3125 C325.17 676.6325 324.84 677.9525 324.5 679.3125 C323.18 679.6425 321.86 679.9725 320.5 680.3125 C320.5 680.9725 320.5 681.6325 320.5 682.3125 C319.84 682.3125 319.18 682.3125 318.5 682.3125 C318.5 683.3025 318.5 684.2925 318.5 685.3125 C316.26953125 687.50390625 316.26953125 687.50390625 313.3125 689.875 C312.34957031 690.66003906 311.38664063 691.44507813 310.39453125 692.25390625 C307.77008547 694.12041493 305.47256986 695.16148716 302.5 696.3125 C302.17 696.993125 301.84 697.67375 301.5 698.375 C301.17 699.014375 300.84 699.65375 300.5 700.3125 C297.875 701.0625 297.875 701.0625 295.5 701.3125 C295.17 702.3025 294.84 703.2925 294.5 704.3125 C292.32958984 705.84301758 292.32958984 705.84301758 289.4609375 707.45703125 C288.41276855 708.0487915 287.36459961 708.64055176 286.28466797 709.25024414 C285.15947754 709.86891357 284.03428711 710.48758301 282.875 711.125 C281.73305176 711.75720459 280.59110352 712.38940918 279.41455078 713.04077148 C271.28409894 717.47928158 263.2769118 721.31330385 254.5 724.3125 C253.20423769 724.77420841 251.90867071 725.23646529 250.61328125 725.69921875 C244.59272606 727.81230972 238.64639687 729.6173981 232.36328125 730.73828125 C219.94214732 733.22928628 207.73336779 737.07315014 195.55029297 740.51000977 C186.42469992 743.07524639 177.27051023 745.52637896 168.10809326 747.95568848 C160.83014614 749.88544545 153.55942112 751.83174348 146.3125 753.875 C137.63616647 756.3195515 128.905255 758.54806504 120.17602539 760.79492188 C113.46832113 762.52667576 106.80107201 764.33609873 100.15234375 766.28125 C94.1036974 767.98910309 88.01586267 769.54756415 81.93066406 771.11938477 C76.27177259 772.58216408 70.62631743 774.08589206 64.98950195 775.6315918 C61.81011896 776.50119062 58.62420376 777.34516661 55.4375 778.1875 C51.41136062 779.25402012 47.39115401 780.33698298 43.3828125 781.46875 C34.68493745 783.92385958 25.9637175 786.21457488 17.1875 788.375 C9.87405196 790.17744194 2.66171159 792.0835143 -4.51171875 794.3828125 C-10.45000059 796.23027796 -16.48476988 797.73824935 -22.5 799.3125 C-25.08412397 799.99706617 -27.66704133 800.68603638 -30.25 801.375 C-31.49910156 801.70757813 -32.74820312 802.04015625 -34.03515625 802.3828125 C-36.92349909 803.15781317 -39.80607086 803.94985275 -42.6875 804.75 C-48.99040959 806.48114816 -55.33845767 808.03468588 -61.68432617 809.59936523 C-62.52068604 809.80634033 -63.3570459 810.01331543 -64.21875 810.2265625 C-64.97091797 810.4117041 -65.72308594 810.5968457 -66.49804688 810.78759766 C-68.18413126 811.22968076 -69.8463718 811.7612906 -71.5 812.3125 C-73.83299825 812.35204234 -76.16708189 812.35651732 -78.5 812.3125 C-78.83 813.3025 -79.16 814.2925 -79.5 815.3125 C-81.88916016 816.15625 -81.88916016 816.15625 -85.0390625 816.8125 C-86.17730469 817.06 -87.31554687 817.3075 -88.48828125 817.5625 C-89.68839844 817.81 -90.88851563 818.0575 -92.125 818.3125 C-94.47268608 818.80620835 -96.81909214 819.30604971 -99.1640625 819.8125 C-100.21029785 820.0290625 -101.2565332 820.245625 -102.33447266 820.46875 C-105.59816728 821.25302013 -105.59816728 821.25302013 -108.90356445 822.80249023 C-122.28193804 828.41957262 -137.93882807 827.81525172 -152.17651367 827.75854492 C-155.43016637 827.75001922 -158.6820653 827.7789454 -161.93554688 827.81054688 C-180.59129675 827.87288834 -197.01258516 824.71273629 -214.5 818.3125 C-215.5621875 817.94511719 -216.624375 817.57773437 -217.71875 817.19921875 C-229.68956133 812.88794883 -243.7970525 806.74383615 -253.5 798.3125 C-253.5 797.6525 -253.5 796.9925 -253.5 796.3125 C-254.24491699 796.20599121 -254.98983398 796.09948242 -255.75732422 795.98974609 C-258.69318763 795.26479638 -260.08131142 794.39240343 -262.3828125 792.4765625 C-263.07503906 791.90679688 -263.76726562 791.33703125 -264.48046875 790.75 C-265.18816406 790.151875 -265.89585937 789.55375 -266.625 788.9375 C-267.34042969 788.34710937 -268.05585938 787.75671875 -268.79296875 787.1484375 C-275.42201175 781.64695135 -275.42201175 781.64695135 -277.5 779.3125 C-277.5 778.6525 -277.5 777.9925 -277.5 777.3125 C-278.16 777.3125 -278.82 777.3125 -279.5 777.3125 C-279.5 776.6525 -279.5 775.9925 -279.5 775.3125 C-280.16 775.3125 -280.82 775.3125 -281.5 775.3125 C-281.5 774.6525 -281.5 773.9925 -281.5 773.3125 C-282.056875 773.085625 -282.61375 772.85875 -283.1875 772.625 C-286.18041199 770.92632022 -288.23527237 768.89177313 -290.5 766.3125 C-290.5 765.3225 -290.5 764.3325 -290.5 763.3125 C-291.098125 763.065 -291.69625 762.8175 -292.3125 762.5625 C-294.83586869 761.12057503 -296.00030076 759.78700374 -297.5 757.3125 C-297.5 756.3225 -297.5 755.3325 -297.5 754.3125 C-298.10328125 754.06242188 -298.7065625 753.81234375 -299.328125 753.5546875 C-301.82412643 752.12711833 -302.76077161 750.87358348 -304.25 748.4375 C-304.67796875 747.75945313 -305.1059375 747.08140625 -305.546875 746.3828125 C-306.5 744.3125 -306.5 744.3125 -306.5 740.3125 C-307.49 739.9825 -308.48 739.6525 -309.5 739.3125 C-310.77099609 737.30981445 -310.77099609 737.30981445 -312.0234375 734.67578125 C-312.48476074 733.71317383 -312.94608398 732.75056641 -313.42138672 731.75878906 C-313.9010791 730.72463867 -314.38077148 729.69048828 -314.875 728.625 C-315.61580811 727.04477051 -315.61580811 727.04477051 -316.37158203 725.43261719 C-323.29386213 710.48600245 -327.61100021 695.2077717 -331.4921875 679.24609375 C-333.53086627 670.89761995 -335.81880488 662.68740264 -338.39428711 654.48852539 C-339.94305726 649.48279785 -341.13236677 644.51432147 -342.06591797 639.35693359 C-342.4216229 637.25950876 -342.4216229 637.25950876 -343.5 635.3125 C-343.63415472 632.6401379 -343.54318541 629.98999512 -343.5 627.3125 C-344.16 627.3125 -344.82 627.3125 -345.5 627.3125 C-345.5 625.0025 -345.5 622.6925 -345.5 620.3125 C-346.16 620.3125 -346.82 620.3125 -347.5 620.3125 C-349.50865708 613.80827707 -350.88614349 608.1343683 -350.5 601.3125 C-351.16 601.3125 -351.82 601.3125 -352.5 601.3125 C-352.5 599.0025 -352.5 596.6925 -352.5 594.3125 C-353.16 594.3125 -353.82 594.3125 -354.5 594.3125 C-354.63051758 593.77471924 -354.76103516 593.23693848 -354.89550781 592.68286133 C-357.20413759 583.2087865 -359.56846508 573.80887444 -362.53515625 564.515625 C-363.85502657 560.13386928 -364.92160998 555.70176114 -365.99804688 551.25512695 C-367.03372469 547.02864764 -368.22528833 542.89383083 -369.5625 538.75 C-371.50798744 532.64545869 -372.7373762 526.52686493 -373.88671875 520.234375 C-374.19656762 517.43367382 -374.19656762 517.43367382 -375.5 516.3125 C-375.54092937 513.97952567 -375.54241723 511.64544775 -375.5 509.3125 C-376.16 509.3125 -376.82 509.3125 -377.5 509.3125 C-377.70753906 508.45914062 -377.91507813 507.60578125 -378.12890625 506.7265625 C-382.48875369 489.03178418 -387.07265637 471.36773187 -392.54638672 453.98144531 C-394.00972628 449.26199449 -395.08912025 444.56755444 -396.01489258 439.71484375 C-396.7261468 436.19257827 -397.69150621 432.76308344 -398.6875 429.3125 C-399.13509071 427.72944233 -399.58164358 426.14609098 -400.02734375 424.5625 C-400.26565918 423.716875 -400.50397461 422.87125 -400.74951172 422 C-403.05705073 413.73669829 -405.25167056 405.44210205 -407.46728516 397.15380859 C-408.40922323 393.65015524 -409.3613952 390.1495139 -410.31741333 386.64968872 C-411.15728864 383.5687666 -411.98970572 380.48585585 -412.82092285 377.40258789 C-413.22872084 375.89621394 -413.63956158 374.39066008 -414.05358887 372.88598633 C-414.6363881 370.76596398 -415.20798731 368.64319731 -415.77734375 366.51953125 C-416.10984131 365.2972583 -416.44233887 364.07498535 -416.78491211 362.81567383 C-417.51908856 359.21898625 -417.62922764 355.9727776 -417.5 352.3125 C-418.16 352.3125 -418.82 352.3125 -419.5 352.3125 C-419.5 350.0025 -419.5 347.6925 -419.5 345.3125 C-420.16 345.3125 -420.82 345.3125 -421.5 345.3125 C-421.70496094 344.25289063 -421.90992188 343.19328125 -422.12109375 342.1015625 C-422.39307666 340.71351178 -422.66522044 339.32549256 -422.9375 337.9375 C-423.13956055 336.88949219 -423.13956055 336.88949219 -423.34570312 335.8203125 C-424.0772422 331.95621266 -424.0772422 331.95621266 -425.5 328.3125 C-425.61072645 326.65172957 -425.65916064 324.9866275 -425.67700195 323.32226562 C-425.68983719 322.27937378 -425.70267242 321.23648193 -425.71589661 320.1619873 C-425.72328354 319.02571899 -425.73067047 317.88945068 -425.73828125 316.71875 C-425.75038887 314.95585632 -425.75038887 314.95585632 -425.76274109 313.15734863 C-425.77660492 310.65553264 -425.78731672 308.15369756 -425.79516602 305.65185547 C-425.81217989 301.8834018 -425.85602076 298.11587198 -425.90039062 294.34765625 C-425.9890089 280.76906105 -425.36075881 268.36033116 -421.5 255.3125 C-421.20150146 254.26255859 -420.90300293 253.21261719 -420.59545898 252.13085938 C-419.8098682 249.49991653 -418.96084289 246.90682568 -418.0625 244.3125 C-417.75957031 243.42296631 -417.45664062 242.53343262 -417.14453125 241.61694336 C-415.35605762 236.47176619 -413.44759369 231.51134613 -410.8203125 226.7265625 C-409.72317321 224.72055042 -408.72144504 222.71273334 -407.7421875 220.6484375 C-407.43345703 220.00447021 -407.12472656 219.36050293 -406.80664062 218.69702148 C-406.1973001 217.42357005 -405.59416449 216.14712622 -404.99804688 214.86743164 C-404.24047892 213.31028119 -403.37653082 211.80592574 -402.5 210.3125 C-401.51 209.9825 -400.52 209.6525 -399.5 209.3125 C-399.12875 208.1059375 -399.12875 208.1059375 -398.75 206.875 C-396.95684174 201.76449896 -393.99302401 197.44344821 -390.5 193.3125 C-389.51 192.9825 -388.52 192.6525 -387.5 192.3125 C-387.066875 190.95125 -387.066875 190.95125 -386.625 189.5625 C-385.29603308 185.72326223 -383.56978952 183.92182109 -380.5 181.3125 C-379.84 181.3125 -379.18 181.3125 -378.5 181.3125 C-378.17 179.9925 -377.84 178.6725 -377.5 177.3125 C-376.18 176.9825 -374.86 176.6525 -373.5 176.3125 C-373.5 175.6525 -373.5 174.9925 -373.5 174.3125 C-372.84 174.3125 -372.18 174.3125 -371.5 174.3125 C-371.28214844 173.76078125 -371.06429687 173.2090625 -370.83984375 172.640625 C-369.04344848 169.51919182 -366.72397686 167.48009651 -364.0625 165.0625 C-363.09441406 164.17046875 -362.12632812 163.2784375 -361.12890625 162.359375 C-358.5 160.3125 -358.5 160.3125 -355.5 160.3125 C-355.25266113 159.70889648 -355.00532227 159.10529297 -354.75048828 158.48339844 C-353.28084301 155.93203457 -352.00919046 155.07278765 -349.4921875 153.578125 C-348.6784668 153.09037598 -347.86474609 152.60262695 -347.02636719 152.10009766 C-346.15141602 151.59269043 -345.27646484 151.0852832 -344.375 150.5625 C-343.47426758 150.03317871 -342.57353516 149.50385742 -341.64550781 148.95849609 C-331.06252552 142.80285899 -320.3798253 137.25563918 -308.9375 132.875 C-308.29458008 132.62766113 -307.65166016 132.38032227 -306.98925781 132.12548828 C-302.802082 130.59223336 -298.90139737 129.80532055 -294.5 129.3125 C-294.80679688 128.58933594 -295.11359375 127.86617188 -295.4296875 127.12109375 C-299.24398075 117.11205417 -300.61772364 104.17194859 -296.9375 94 C-292.09940443 83.75264481 -284.91467686 76.88236291 -274.4375 72.4375 C-264.56022415 69.47431725 -253.62640987 70.73696208 -244.5 75.3125 C-232.16935995 83.86383371 -227.64782498 95.54759411 -223.5 109.3125 C-220.86 109.3125 -218.22 109.3125 -215.5 109.3125 C-215.5 108.6525 -215.5 107.9925 -215.5 107.3125 C-214.92145264 107.18198242 -214.34290527 107.05146484 -213.74682617 106.91699219 C-199.70347933 103.76472307 -199.70347933 103.76472307 -186.07421875 99.20703125 C-181.91546515 97.76188015 -177.62271581 97.02503508 -173.3125 96.16015625 C-169.10079719 95.22374282 -165.00355843 94.0577302 -160.875 92.8125 C-154.12408653 90.77814267 -147.35690296 88.9609626 -140.5 87.3125 C-130.76759842 84.95961171 -121.13368889 82.38792794 -111.5168457 79.60107422 C-104.70011037 77.63283126 -97.85666859 75.7933831 -90.97924805 74.04907227 C-87.28537268 73.09987977 -83.66715219 72.05729625 -80.05859375 70.8203125 C-75.37064087 69.22405796 -70.62532448 68.02983307 -65.8125 66.875 C-59.81250414 65.41094993 -53.86005601 63.87692606 -47.9375 62.125 C-42.17765152 60.43735756 -36.42862494 59.23204183 -30.5 58.3125 C-30.933125 56.66314453 -30.933125 56.66314453 -31.375 54.98046875 C-34.80193434 41.53493453 -36.30372857 30.49037781 -30.5 17.3125 C-28.47698288 14.24792951 -26.19625023 11.79350337 -23.5 9.3125 C-22.61054687 8.46558594 -22.61054687 8.46558594 -21.703125 7.6015625 C-14.81620119 1.35457409 -9.16870592 -0.15984494 0 0 Z " fill="#243A51" transform="translate(530.5,118.6875)"/>
<path d="M0 0 C5.16929442 3.05655097 9.43967975 7.23082236 13.75390625 11.36328125 C16.43728855 13.92598461 19.23504792 16.29521484 22.125 18.625 C52.78577824 43.38435493 52.78577824 43.38435493 54.6875 56.0625 C55.590017 71.1970159 44.40401999 81.83348793 35.19824219 92.50537109 C32.82529932 95.26153704 30.47470117 98.0365183 28.125 100.8125 C27.66496582 101.35511475 27.20493164 101.89772949 26.73095703 102.45678711 C23.90701919 105.79494503 21.12854562 109.16579043 18.375 112.5625 C14.80663938 116.94503202 11.1445921 121.23510264 7.4375 125.5 C6.88481445 126.13591064 6.33212891 126.77182129 5.76269531 127.42700195 C3.56709838 129.95142812 1.37048608 132.47496907 -0.82666016 134.99804688 C-6.83082092 141.90464426 -12.64192113 148.90374556 -18.2421875 156.14208984 C-21.89373335 160.82393097 -25.81854483 165.1959893 -29.85546875 169.55078125 C-33.01531701 173.03022264 -35.95973225 176.66236621 -38.9140625 180.31640625 C-48.16398167 191.68545406 -57.81901963 202.73725655 -67.39453125 213.83203125 C-72.42158153 219.66429027 -77.36095186 225.5328242 -82.13671875 231.57421875 C-86.21428488 236.61653251 -90.4874456 241.49480503 -94.71972656 246.40722656 C-100.43655884 253.05801484 -106.10095261 259.75051442 -111.625 266.5625 C-115.79156423 271.68483524 -120.11201281 276.66167378 -124.45043945 281.63793945 C-128.37489097 286.14965363 -132.18426783 290.74075555 -135.94921875 295.38671875 C-139.62772387 299.86462736 -143.42039656 304.24349295 -147.19921875 308.63671875 C-153.51249661 315.97713301 -159.77900207 323.35272872 -165.875 330.875 C-169.45222179 335.27332786 -173.19597541 339.48048854 -177.01171875 343.671875 C-180.05397186 347.09109141 -182.9186979 350.64175161 -185.796875 354.19921875 C-188.58451681 357.59499261 -191.44182217 360.92447703 -194.3125 364.25 C-197.67953526 368.15339108 -200.99777643 372.07391648 -204.1875 376.125 C-208.10266961 381.08421484 -212.2468427 385.82802204 -216.39990234 390.58740234 C-220.34280787 395.11494952 -224.16910707 399.72204711 -227.94921875 404.38671875 C-231.63006413 408.8674762 -235.42513193 413.24909186 -239.20703125 417.64453125 C-243.46351925 422.59308716 -247.67167006 427.5822854 -251.88232422 432.56982422 C-253.27459417 434.21658979 -254.67005473 435.86060067 -256.06640625 437.50390625 C-260.38498801 442.58978673 -264.67475401 447.69032136 -268.875 452.875 C-271.74426557 456.40286923 -274.68905693 459.82469922 -277.75 463.1875 C-282.455941 468.35913308 -286.86054438 473.74672372 -291.25 479.1875 C-297.85651143 487.37223361 -304.68125577 495.34108221 -311.5859375 503.2734375 C-318.24565473 510.93367563 -324.84337956 518.61549234 -331.140625 526.578125 C-335.70770412 532.22777102 -340.5033942 537.68872392 -345.25 543.1875 C-353.75087009 553.04524589 -353.75087009 553.04524589 -362.0625 563.0625 C-363.13757813 564.37734375 -363.13757813 564.37734375 -364.234375 565.71875 C-365.52252045 567.29647853 -366.80442023 568.87934063 -368.078125 570.46875 C-374.100217 577.73866287 -380.91765738 582.49272642 -390.55859375 583.40625 C-405.22686269 583.95545196 -413.95015812 576.68834145 -424.25 567.1875 C-425.72483148 565.83671976 -427.19966793 564.4859449 -428.67480469 563.13549805 C-430.19162333 561.74622339 -431.70729684 560.35570981 -433.22265625 558.96484375 C-441.68106227 551.05481861 -441.68106227 551.05481861 -450.5 543.5625 C-452.81500663 541.56317609 -454.65384955 539.6283808 -456.625 537.3125 C-459.56160166 533.86714498 -462.70010507 530.9575847 -466.1484375 528.03515625 C-468.45251105 526.0094559 -470.59751158 523.87327433 -472.75 521.6875 C-475.47829407 518.92189592 -478.23516834 516.27462969 -481.1875 513.75 C-485.28058303 510.2428056 -489.02224704 506.43024842 -492.80859375 502.59765625 C-495.52202727 499.91895468 -498.35777023 497.44141882 -501.25390625 494.96484375 C-504.31803813 492.23650715 -507.15481832 489.29082092 -510.03515625 486.37109375 C-512.02659461 484.40775329 -514.06302578 482.56670331 -516.1875 480.75 C-520.28058303 477.2428056 -524.02224704 473.43024842 -527.80859375 469.59765625 C-530.52202727 466.91895468 -533.35777023 464.44141882 -536.25390625 461.96484375 C-539.31666727 459.23772777 -542.15223493 456.29345363 -545.03125 453.375 C-547.04430632 451.39029658 -549.10446403 449.52653084 -551.25 447.6875 C-555.04358733 444.43585372 -558.52392647 440.93036906 -562.03125 437.375 C-564.04430632 435.39029658 -566.10446403 433.52653084 -568.25 431.6875 C-572.04358733 428.43585372 -575.52392647 424.93036906 -579.03125 421.375 C-581.04430632 419.39029658 -583.10446403 417.52653084 -585.25 415.6875 C-589.04358733 412.43585372 -592.52392647 408.93036906 -596.03125 405.375 C-598.04430632 403.39029658 -600.10446403 401.52653084 -602.25 399.6875 C-606.04078785 396.43825327 -609.51878424 392.93563968 -613.0234375 389.3828125 C-615.69244727 386.75126252 -618.49490152 384.31662017 -621.33984375 381.87890625 C-623.90125187 379.61082912 -626.27460533 377.18093262 -628.66015625 374.73046875 C-630.33534934 373.02767798 -630.33534934 373.02767798 -632.875 371.3125 C-637.14109445 367.49546813 -640.28502071 361.87133404 -641.25 356.1875 C-641.62823451 344.34711533 -637.86089861 334.50369415 -629.83984375 325.78515625 C-629.31519531 325.25792969 -628.79054688 324.73070312 -628.25 324.1875 C-627.50621094 323.43984375 -626.76242187 322.6921875 -625.99609375 321.921875 C-623.98260683 319.91698048 -621.96546408 317.91612126 -619.9453125 315.91796875 C-614.36852372 310.39075831 -608.86111068 304.8812184 -603.7421875 298.921875 C-597.53179475 291.70351274 -591.38034328 287.23094776 -582.25 284.1875 C-573.15769627 283.56044457 -565.86726472 286.23603287 -558.25 291.1875 C-555.37915039 293.73364258 -555.37915039 293.73364258 -552.59765625 296.58203125 C-552.09382919 297.09247482 -551.59000214 297.6029184 -551.07090759 298.12882996 C-549.477396 299.74550364 -547.89446171 301.37202992 -546.3125 303 C-544.22396147 305.13537106 -542.13097645 307.26630766 -540.03515625 309.39453125 C-539.53214996 309.90621857 -539.02914368 310.41790588 -538.51089478 310.94509888 C-535.1115297 314.38041831 -531.5979578 317.61331937 -527.91967773 320.74487305 C-525.57187957 322.77340637 -523.41362181 324.96540192 -521.25 327.1875 C-518.33373397 330.13933025 -515.40394165 332.99138859 -512.25 335.6875 C-508.1751665 339.17082542 -504.45707008 342.96568708 -500.69140625 346.77734375 C-497.97797273 349.45604532 -495.14222977 351.93358118 -492.24609375 354.41015625 C-489.1847036 357.13605159 -486.35034836 360.07891358 -483.47265625 362.99609375 C-480.8229856 365.60851068 -478.03827197 368.02052621 -475.21484375 370.44140625 C-473.14179676 372.28365675 -471.19564198 374.21151662 -469.25 376.1875 C-466.73044611 378.74619259 -464.16881218 381.16920611 -461.4375 383.5 C-457.53450191 386.85090406 -453.93526006 390.47226894 -450.32592773 394.13110352 C-447.03682264 397.44766071 -443.62856243 400.54726378 -440.078125 403.578125 C-437.60552268 405.75486038 -435.32693362 408.10014771 -433.01953125 410.44921875 C-431.21989519 412.21707316 -429.35398088 413.86004542 -427.4375 415.5 C-423.31609921 419.04743395 -419.53455521 422.88711052 -415.71484375 426.75390625 C-412.89368317 429.53929935 -409.96153259 432.14868212 -406.94140625 434.71484375 C-405.30216211 436.14208403 -403.76774524 437.63262338 -402.25 439.1875 C-398.06834939 437.58834145 -395.48238282 434.49892972 -392.5625 431.25 C-392.03140625 430.66661865 -391.5003125 430.0832373 -390.953125 429.48217773 C-387.01898653 425.12677836 -383.27002869 420.64177483 -379.59375 416.06640625 C-376.8706017 412.72147243 -374.06748949 409.4529456 -371.25 406.1875 C-367.69519799 402.06306102 -364.18206901 397.9154111 -360.75 393.6875 C-356.81556744 388.84073525 -352.76445426 384.10470745 -348.68920898 379.37670898 C-345.67754991 375.87514698 -342.7194105 372.33963443 -339.8125 368.75 C-335.71278764 363.70134879 -331.46741345 358.79154779 -327.19873047 353.88623047 C-320.37121101 346.03747526 -313.57334033 338.16535402 -307.125 330 C-303.73990021 325.72372088 -300.12987232 321.70136333 -296.45703125 317.671875 C-293.66513282 314.52913623 -291.07777883 311.24996537 -288.4765625 307.94921875 C-285.32192583 304.03636238 -282.03359537 300.24369623 -278.74951172 296.43945312 C-275.6287393 292.8171104 -272.57017895 289.15503324 -269.5625 285.4375 C-266.71541499 281.9286601 -263.79187448 278.52883363 -260.75 275.1875 C-256.04407077 270.01587985 -251.63928492 264.62838443 -247.25 259.1875 C-242.84182159 253.72319552 -238.41649729 248.31635208 -233.6875 243.125 C-230.10162067 239.18671529 -226.76301379 235.11735906 -223.46484375 230.9375 C-220.87063907 227.71647691 -218.19660152 224.57287205 -215.5 221.4375 C-214.99484863 220.8499292 -214.48969727 220.2623584 -213.96923828 219.65698242 C-211.31502498 216.57460283 -208.65310786 213.49898596 -205.98828125 210.42578125 C-205.4562207 209.80993164 -204.92416016 209.19408203 -204.37597656 208.55957031 C-203.36882683 207.39389358 -202.35924482 206.23031169 -201.34667969 205.06933594 C-198.92849921 202.26801081 -196.6748012 199.43068337 -194.55078125 196.3984375 C-192.30692271 193.26694052 -190.24990564 191.54456872 -187.25 189.1875 C-184.80661615 186.615517 -182.5383193 183.8973518 -180.25 181.1875 C-178.97382812 179.69089844 -178.97382812 179.69089844 -177.671875 178.1640625 C-173.33312228 173.06777415 -169.03382393 167.94429696 -164.8125 162.75 C-161.35725696 158.5035743 -157.82297796 154.33457641 -154.25 150.1875 C-149.90802582 145.14698984 -145.64609977 140.052524 -141.453125 134.88671875 C-139.11931581 132.0273887 -136.74918067 129.20087228 -134.375 126.375 C-130.80512719 122.10655423 -127.34725588 117.77179047 -123.9375 113.375 C-119.45851669 107.6105901 -114.75642873 102.07643083 -109.94824219 96.58496094 C-106.05228498 92.13210693 -102.28234656 87.59441603 -98.55859375 82.99609375 C-95.83655909 79.6845152 -93.04860269 76.43436941 -90.25 73.1875 C-86.69542508 69.062857 -83.18207702 64.91542096 -79.75 60.6875 C-75.81556744 55.84073525 -71.76445426 51.10470745 -67.68920898 46.37670898 C-64.67754991 42.87514698 -61.7194105 39.33963443 -58.8125 35.75 C-54.65384803 30.6235163 -50.33708233 25.64668692 -45.9855957 20.68408203 C-42.84812103 17.09062463 -39.87483874 13.43516551 -37 9.625 C-28.31164873 -1.44296341 -13.18271461 -5.95695261 0 0 Z " fill="#5BB269" transform="translate(921.25,124.8125)"/>
<path d="M0 0 C3.44990956 1.81084465 5.72501054 3.25428626 6.9453125 7.05078125 C5.6253125 7.05078125 4.3053125 7.05078125 2.9453125 7.05078125 C2.4503125 5.56578125 2.4503125 5.56578125 1.9453125 4.05078125 C-5.81980124 -2.20004727 -14.69620998 -1.47171439 -24.0546875 -0.94921875 C-24.0546875 -0.28921875 -24.0546875 0.37078125 -24.0546875 1.05078125 C-25.1890625 1.50453125 -26.3234375 1.95828125 -27.4921875 2.42578125 C-31.10190442 3.62173931 -31.10190442 3.62173931 -32.0546875 6.05078125 C-32.7146875 6.05078125 -33.3746875 6.05078125 -34.0546875 6.05078125 C-34.3846875 7.04078125 -34.7146875 8.03078125 -35.0546875 9.05078125 C-35.7146875 9.05078125 -36.3746875 9.05078125 -37.0546875 9.05078125 C-37.7146875 10.37078125 -38.3746875 11.69078125 -39.0546875 13.05078125 C-39.7146875 13.05078125 -40.3746875 13.05078125 -41.0546875 13.05078125 C-41.2196875 13.73140625 -41.3846875 14.41203125 -41.5546875 15.11328125 C-43.42894138 18.78369511 -45.88169035 20.6676309 -49.015625 23.27734375 C-52.24276119 26.08408672 -55.12861546 29.19863718 -57.0546875 33.05078125 C-58.0446875 33.05078125 -59.0346875 33.05078125 -60.0546875 33.05078125 C-60.3021875 33.60765625 -60.5496875 34.16453125 -60.8046875 34.73828125 C-62.82876931 38.4828326 -65.31371426 41.420954 -68.5546875 44.17578125 C-76.07613432 52.8254451 -75.54163362 63.27033519 -75.0546875 74.05078125 C-77.87322299 71.23224576 -78.01892935 69.17016678 -78.14453125 65.23828125 C-77.58707148 53.57450762 -73.27773172 44.31423355 -65.0546875 36.05078125 C-64.31089844 35.303125 -63.56710937 34.55546875 -62.80078125 33.78515625 C-60.78729433 31.78026173 -58.77015158 29.77940251 -56.75 27.78125 C-51.17321122 22.25403956 -45.66579818 16.74449965 -40.546875 10.78515625 C-29.22071971 -2.37927555 -16.25956676 -7.5115489 0 0 Z " fill="#6FAA7A" transform="translate(358.0546875,412.94921875)"/>
<path d="M0 0 C0.495 1.485 0.495 1.485 1 3 C-0.14453125 4.82421875 -0.14453125 4.82421875 -1.8125 6.6875 C-2.62654297 7.62142578 -2.62654297 7.62142578 -3.45703125 8.57421875 C-5 10 -5 10 -7 10 C-7.28875 10.5775 -7.5775 11.155 -7.875 11.75 C-8.24625 12.4925 -8.6175 13.235 -9 14 C-9.268125 14.66 -9.53625 15.32 -9.8125 16 C-11.4037864 18.6800613 -13.5606986 20.05964661 -16 22 C-20.15391249 26.03920699 -20.15391249 26.03920699 -22.484375 31.15625 C-22.65453125 31.7646875 -22.8246875 32.373125 -23 33 C-23.99 33.33 -24.98 33.66 -26 34 C-27.99089801 36.23221898 -29.66928316 38.2857628 -30.9296875 41.0078125 C-32.37597902 43.69981497 -34.59268581 45.1765812 -36.921875 47.08984375 C-42.05063105 51.80405749 -47.15554237 57.5886828 -50 64 C-50.66 64 -51.32 64 -52 64 C-53.52299523 66.93720508 -54.80100302 69.9168649 -56 73 C-56.99 73 -57.98 73 -59 73 C-59.495 73.99 -59.495 73.99 -60 75 C-60 70.50206646 -60 70.50206646 -57.47265625 67.71484375 C-56.9324585 67.10761475 -56.39226074 66.50038574 -55.83569336 65.87475586 C-54.95796265 64.91581421 -54.95796265 64.91581421 -54.0625 63.9375 C-52.85556485 62.58440809 -51.64984006 61.2302356 -50.4453125 59.875 C-49.85266602 59.21242188 -49.26001953 58.54984375 -48.64941406 57.8671875 C-46.50965504 55.44491441 -44.46640373 52.95304116 -42.4375 50.4375 C-38.52693122 45.6084857 -34.49541277 40.89505347 -30.43896484 36.18896484 C-27.4274197 32.68745747 -24.46933791 29.15204479 -21.5625 25.5625 C-17.32882696 20.34407151 -12.93847791 15.27132803 -8.51586914 10.21313477 C-5.59568885 6.86820098 -2.74317624 3.49373052 0 0 Z " fill="#6CAA79" transform="translate(603,468)"/>
<path d="M0 0 C5.49017248 3.2306117 10.08720482 7.63090854 14.625 12.0625 C13.635 12.3925 12.645 12.7225 11.625 13.0625 C11.13 11.5775 11.13 11.5775 10.625 10.0625 C9.573125 10.2275 8.52125 10.3925 7.4375 10.5625 C6.179375 10.3975 4.92125 10.2325 3.625 10.0625 C2.328125 8.3515625 2.328125 8.3515625 1.1875 6.1875 C-0.43912423 3.11534579 -0.43912423 3.11534579 -3.14453125 1.0859375 C-5.24405871 0.53103281 -7.2105067 0.23768381 -9.375 0.0625 C-10.11234375 -0.00582031 -10.8496875 -0.07414062 -11.609375 -0.14453125 C-18.5891312 -0.46945094 -24.01823283 1.00659672 -29.3125 5.625 C-31.37773555 7.87101145 -31.37773555 7.87101145 -32.375 10.0625 C-34.875 11.5625 -34.875 11.5625 -37.375 13.0625 C-37.705 13.7225 -38.035 14.3825 -38.375 15.0625 C-37.715 15.3925 -37.055 15.7225 -36.375 16.0625 C-37.695 16.0625 -39.015 16.0625 -40.375 16.0625 C-40.705 17.3825 -41.035 18.7025 -41.375 20.0625 C-42.365 20.0625 -43.355 20.0625 -44.375 20.0625 C-44.375 21.0525 -44.375 22.0425 -44.375 23.0625 C-46.375 24.75 -46.375 24.75 -48.375 26.0625 C-49.035 25.7325 -49.695 25.4025 -50.375 25.0625 C-49.73433594 24.37285156 -49.09367188 23.68320313 -48.43359375 22.97265625 C-44.33631073 18.52121166 -40.36406341 14.15852868 -36.8125 9.25 C-28.39003837 -1.89325684 -12.85754655 -5.96737806 0 0 Z " fill="#6BAA78" transform="translate(921.375,124.9375)"/>
<path d="M0 0 C0.66 0.33 1.32 0.66 2 1 C1.26136719 1.85980469 0.52273438 2.71960938 -0.23828125 3.60546875 C-5.3448573 9.5540866 -10.44255241 15.50952614 -15.5 21.5 C-19.80652802 26.60083801 -24.14401678 31.67424583 -28.49316406 36.73876953 C-33.69365091 42.79919281 -38.84981155 48.89682392 -44 55 C-44 50.67757385 -42.30392005 47.60829324 -40 44 C-37.0625 41.3125 -37.0625 41.3125 -34 39 C-30.27204428 35.65691071 -30.27204428 35.65691071 -28 31.3125 C-27 29 -27 29 -24.375 27.6875 C-23.199375 27.3471875 -23.199375 27.3471875 -22 27 C-22 26.34 -22 25.68 -22 25 C-21.34 24.67 -20.68 24.34 -20 24 C-19.54625 23.01 -19.0925 22.02 -18.625 21 C-17 18 -17 18 -14.8125 17.125 C-14.214375 17.08375 -13.61625 17.0425 -13 17 C-13 15.68 -13 14.36 -13 13 C-12.01 12.67 -11.02 12.34 -10 12 C-7.94786793 9.75011032 -7.94786793 9.75011032 -5.9375 7.0625 C-2.11392405 2.11392405 -2.11392405 2.11392405 0 0 Z " fill="#6DAA77" transform="translate(949,223)"/>
<path d="M0 0 C0.66 0.33 1.32 0.66 2 1 C0.72395841 3.75187312 -0.64472937 5.94516965 -2.65234375 8.21484375 C-3.17602539 8.81200195 -3.69970703 9.40916016 -4.23925781 10.02441406 C-4.79967773 10.65573242 -5.36009766 11.28705078 -5.9375 11.9375 C-7.11910254 13.28461885 -8.30008169 14.63228473 -9.48046875 15.98046875 C-10.36871338 16.99246338 -10.36871338 16.99246338 -11.27490234 18.02490234 C-13.79458668 20.90973765 -16.27782134 23.82442608 -18.75 26.75 C-19.19682129 27.27859619 -19.64364258 27.80719238 -20.10400391 28.35180664 C-23.77727788 32.71103721 -27.38554953 37.1221094 -30.984375 41.54296875 C-33.60678793 44.73966978 -36.29212706 47.87553122 -39 51 C-39.66 50.34 -40.32 49.68 -41 49 C-40.34 49 -39.68 49 -39 49 C-38.773125 48.46375 -38.54625 47.9275 -38.3125 47.375 C-36.90717727 44.83203506 -35.19614463 42.72855294 -33.30859375 40.52734375 C-31.48280689 38.39635073 -29.74492315 36.19731063 -28 34 C-28.66 33.67 -29.32 33.34 -30 33 C-29.236875 32.773125 -28.47375 32.54625 -27.6875 32.3125 C-24.44095547 30.72697825 -23.71197206 29.09785421 -22 26 C-21.34 26 -20.68 26 -20 26 C-20 25.34 -20 24.68 -20 24 C-19.34 24 -18.68 24 -18 24 C-17.7525 23.236875 -17.505 22.47375 -17.25 21.6875 C-15.85501217 18.68827617 -14.58598307 17.9394873 -12 16 C-11.32650839 14.33607955 -10.6590841 12.66967972 -10 11 C-9.01 10.67 -8.02 10.34 -7 10 C-6.67 9.01 -6.34 8.02 -6 7 C-4.33333333 5.66666667 -2.66666667 4.33333333 -1 3 C-0.67 2.01 -0.34 1.02 0 0 Z " fill="#6AA976" transform="translate(784,417)"/>
<path d="M0 0 C0.99 0.33 1.98 0.66 3 1 C2.67 2.65 2.34 4.3 2 6 C2.99 6.66 3.98 7.32 5 8 C5 8.66 5 9.32 5 10 C5.66 10 6.32 10 7 10 C7 10.66 7 11.32 7 12 C7.99 12 8.98 12 10 12 C11.578125 13.828125 11.578125 13.828125 13.25 16.25 C16.48287407 20.61985944 19.18485796 22.59242898 24 25 C25.9375 26.625 25.9375 26.625 27 28 C27 28.66 27 29.32 27 30 C28.63260714 31.37482707 30.30225062 32.70647667 32 34 C32.66 34.66 33.32 35.32 34 36 C33.01 36.33 32.02 36.66 31 37 C30.24976563 36.2265625 29.49953125 35.453125 28.7265625 34.65625 C23.92934723 29.75889562 19.19904129 24.9968884 13.75 20.8125 C9.57311344 17.59951034 6.23709606 14.05953561 2.828125 10.0546875 C0.43207377 7.36168975 -2.15527363 5.20466294 -5 3 C-4.360625 2.690625 -3.72125 2.38125 -3.0625 2.0625 C-1.06389179 1.1654837 -1.06389179 1.1654837 0 0 Z " fill="#6AA977" transform="translate(460,650)"/>
<path d="M0 0 C0.66 0 1.32 0 2 0 C1.67600398 3.15400211 1.21241406 6.05857806 0 9 C-3.4375 10.6875 -3.4375 10.6875 -7 12 C-8.97806411 15.03411107 -8.97806411 15.03411107 -10 18 C-10.99 18 -11.98 18 -13 18 C-13 18.99 -13 19.98 -13 21 C-14.32 21.33 -15.64 21.66 -17 22 C-17 22.99 -17 23.98 -17 25 C-19.5 27.1875 -19.5 27.1875 -22 29 C-22.66 28.67 -23.32 28.34 -24 28 C-23.31035156 27.26136719 -22.62070312 26.52273438 -21.91015625 25.76171875 C-14.87167411 18.17939395 -8.11531454 10.44429685 -1.87109375 2.18359375 C-1.25363281 1.46300781 -0.63617187 0.74242187 0 0 Z " fill="#6BAB76" transform="translate(678,379)"/>
<path d="M0 0 C0.33 0.99 0.66 1.98 1 3 C0.27296875 3.70769531 -0.4540625 4.41539062 -1.203125 5.14453125 C-3.88922022 7.88689942 -6.32923368 10.71028236 -8.75 13.6875 C-9.52859375 14.64011719 -10.3071875 15.59273437 -11.109375 16.57421875 C-12.99986059 18.8354719 -12.99986059 18.8354719 -14 21 C-14.66 21 -15.32 21 -16 21 C-16.2475 21.5775 -16.495 22.155 -16.75 22.75 C-18.17288843 25.31119917 -19.9333048 26.9333048 -22 29 C-22.7425 30.2375 -22.7425 30.2375 -23.5 31.5 C-25.05703273 34.09505455 -26.79334001 35.94552346 -29 38 C-29 33.50206646 -29 33.50206646 -26.47265625 30.71484375 C-25.93205566 30.10713135 -25.39145508 29.49941895 -24.83447266 28.87329102 C-24.24972168 28.23447998 -23.6649707 27.59566895 -23.0625 26.9375 C-21.86204273 25.59225002 -20.66283021 24.24588827 -19.46484375 22.8984375 C-18.87300293 22.23682617 -18.28116211 21.57521484 -17.67138672 20.89355469 C-15.41576098 18.3381014 -13.26746502 15.71366122 -11.125 13.0625 C-7.52086384 8.61229121 -3.80968335 4.27517521 0 0 Z " fill="#67A876" transform="translate(827,203)"/>
<path d="M0 0 C1.32 0.33 2.64 0.66 4 1 C-2.69725108 9.59918945 -9.82629109 17.79835109 -17 26 C-17.33 25.01 -17.66 24.02 -18 23 C-17.04504326 21.30712215 -16.0409066 19.64142963 -15 18 C-14.896875 17.278125 -14.79375 16.55625 -14.6875 15.8125 C-14.460625 15.214375 -14.23375 14.61625 -14 14 C-13.0925 13.731875 -12.185 13.46375 -11.25 13.1875 C-7.26972379 11.73316831 -6.25431233 10.04774743 -4.078125 6.55859375 C-3 5 -3 5 -1 4 C-0.34786708 1.97536745 -0.34786708 1.97536745 0 0 Z " fill="#66AC72" transform="translate(625,604)"/>
<path d="M0 0 C1.98 0.66 3.96 1.32 6 2 C6 2.66 6 3.32 6 4 C6.66 4 7.32 4 8 4 C8 4.66 8 5.32 8 6 C8.99 6 9.98 6 11 6 C11 6.99 11 7.98 11 9 C11.86625 9.061875 11.86625 9.061875 12.75 9.125 C15.58366888 10.22698234 16.1803559 11.82443439 17.76464844 14.30664062 C20.45133624 17.98942058 24.14215886 20.79828394 27.57421875 23.76367188 C29.1014129 25.11944627 30.55701284 26.5549276 32 28 C32 28.99 32 29.98 32 31 C31.56357178 30.58862793 31.12714355 30.17725586 30.67749023 29.75341797 C28.59784106 27.79357614 26.51766974 25.83428929 24.4375 23.875 C23.67767822 23.15884521 22.91785645 22.44269043 22.13500977 21.70483398 C18.2798607 18.07441199 14.41711745 14.45301315 10.53125 10.85546875 C9.8410376 10.21561035 9.1508252 9.57575195 8.43969727 8.91650391 C7.1193462 7.69387911 5.79695982 6.47344814 4.47241211 5.25537109 C2.96307332 3.8566526 1.47856185 2.43121343 0 1 C0 0.67 0 0.34 0 0 Z " fill="#6FA97B" transform="translate(348,551)"/>
<path d="M0 0 C1.32 0.66 2.64 1.32 4 2 C0.0659182 7.52897983 -4.25275779 12.52458102 -8.87548828 17.47851562 C-12.86310543 21.77982715 -16.51038285 26.28365736 -20 31 C-20.33 30.01 -20.66 29.02 -21 28 C-20.525625 27.566875 -20.05125 27.13375 -19.5625 26.6875 C-17.76313043 24.97690387 -17.76313043 24.97690387 -17 22 C-15.34997172 20.64613064 -13.6825613 19.31321858 -12 18 C-11.34 17.01 -10.68 16.02 -10 15 C-8.5 12.8125 -8.5 12.8125 -7 11 C-6.34 11 -5.68 11 -5 11 C-4.896875 10.38125 -4.79375 9.7625 -4.6875 9.125 C-4 7 -4 7 -1 5 C-0.27034634 2.43717258 -0.27034634 2.43717258 0 0 Z " fill="#6BAA78" transform="translate(869,314)"/>
<path d="M0 0 C0.33 0.66 0.66 1.32 1 2 C-0.52691402 5.22348516 -1.74654558 6.8329505 -4.75 8.8125 C-7.21738248 10.71339882 -7.21738248 10.71339882 -7.09765625 13.02734375 C-6.84006872 15.03511504 -6.42863694 17.02167565 -6 19 C-7.98 18.34 -9.96 17.68 -12 17 C-14.31 19.64 -16.62 22.28 -19 25 C-19.66 24.67 -20.32 24.34 -21 24 C-20.45472656 23.40574219 -19.90945313 22.81148438 -19.34765625 22.19921875 C-14.36248782 16.7197943 -9.58312694 11.12414556 -4.9453125 5.34765625 C-3.37139584 3.44821064 -1.78331404 1.69919545 0 0 Z " fill="#6AAC77" transform="translate(725,324)"/>
<path d="M0 0 C3.18706942 1.43561686 5.62169105 3.20266329 8.25 5.5 C8.95640625 6.1084375 9.6628125 6.716875 10.390625 7.34375 C12 9 12 9 12 11 C13.65 11.33 15.3 11.66 17 12 C17 12.99 17 13.98 17 15 C17.99 15.33 18.98 15.66 20 16 C21.75390625 17.70703125 21.75390625 17.70703125 23.5625 19.8125 C24.16191406 20.49957031 24.76132812 21.18664062 25.37890625 21.89453125 C26.90159064 23.8721864 27.92310516 25.76107683 29 28 C24.04686294 23.80642906 19.23520571 19.49992474 14.5 15.0625 C13.87480469 14.48048828 13.24960937 13.89847656 12.60546875 13.29882812 C3.33859054 4.63631154 3.33859054 4.63631154 0 1 C0 0.67 0 0.34 0 0 Z " fill="#6AA675" transform="translate(426,624)"/>
<path d="M0 0 C0 0.99 0 1.98 0 3 C0.99 4.485 0.99 4.485 2 6 C0.71034824 7.37562854 -0.62689293 8.70766393 -2 10 C-2.66 10 -3.32 10 -4 10 C-4.33 10.66 -4.66 11.32 -5 12 C-6.64363134 12.72159424 -8.31050386 13.39351421 -10 14 C-10 14.66 -10 15.32 -10 16 C-11.375 17.625 -11.375 17.625 -13 19 C-13.66 19 -14.32 19 -15 19 C-13.64846172 16.04600494 -12.1032015 13.76442524 -9.9609375 11.328125 C-9.38085938 10.66425781 -8.80078125 10.00039062 -8.203125 9.31640625 C-7.59984375 8.63449219 -6.9965625 7.95257813 -6.375 7.25 C-5.45847656 6.20392578 -5.45847656 6.20392578 -4.5234375 5.13671875 C-3.01936197 3.4211326 -1.51147502 1.70906591 0 0 Z " fill="#EDF7EF" transform="translate(941,235)"/>
<path d="M0 0 C0.66 0.33 1.32 0.66 2 1 C-4.38695257 9.285131 -10.857504 17.34606601 -18 25 C-18.33 24.01 -18.66 23.02 -19 22 C-17.1875 19.3125 -17.1875 19.3125 -15 17 C-14.34 17 -13.68 17 -13 17 C-12.67 15.35 -12.34 13.7 -12 12 C-11.01 12 -10.02 12 -9 12 C-9 11.34 -9 10.68 -9 10 C-7.33333333 8.33333333 -5.66666667 6.66666667 -4 5 C-3.30419733 3.68163705 -2.62775567 2.35208914 -2 1 C-1.34 0.67 -0.68 0.34 0 0 Z " fill="#6BA977" transform="translate(664,560)"/>
<path d="M0 0 C0.33 0.99 0.66 1.98 1 3 C-0.03447266 4.10794922 -0.03447266 4.10794922 -1.08984375 5.23828125 C-7.32997516 11.96133972 -13.27939127 18.82452041 -19 26 C-19.66 25.67 -20.32 25.34 -21 25 C-19.14072351 20.72366407 -18.11476022 18.99503526 -14 17 C-12.63823419 15.01924973 -11.30406884 13.01920337 -10 11 C-9.01 10.34 -8.02 9.68 -7 9 C-6.71125 8.401875 -6.4225 7.80375 -6.125 7.1875 C-4.60193485 4.22598444 -2.4013747 2.27498655 0 0 Z " fill="#6CA979" transform="translate(590,648)"/>
<path d="M0 0 C0.66 0.33 1.32 0.66 2 1 C0.55922954 4.36179774 -1.24750021 6.59156268 -4 9 C-4.66 9 -5.32 9 -6 9 C-6.268125 9.928125 -6.53625 10.85625 -6.8125 11.8125 C-7.93710035 14.8311641 -8.70706573 15.9155143 -11 18 C-11 18.66 -11 19.32 -11 20 C-12.98 20 -14.96 20 -17 20 C-13.54026271 15.12088331 -9.91370276 10.76676697 -5.61328125 6.609375 C-3.54895846 4.55005057 -1.75923762 2.32219366 0 0 Z " fill="#75AF7F" transform="translate(539,544)"/>
<path d="M0 0 C1.65012665 1.40948318 3.2994778 2.81988253 4.9453125 4.234375 C6.27054423 5.37316729 7.59847743 6.50882697 8.9296875 7.640625 C14.21055914 12.17920545 19.12848916 17.02699935 24 22 C23.01 22.33 22.02 22.66 21 23 C20.59007812 22.50628906 20.18015625 22.01257813 19.7578125 21.50390625 C19.21898437 20.86324219 18.68015625 20.22257812 18.125 19.5625 C17.59132813 18.92441406 17.05765625 18.28632813 16.5078125 17.62890625 C15.0777243 15.89194996 15.0777243 15.89194996 13 15 C13 14.34 13 13.68 13 13 C11.68 12.67 10.36 12.34 9 12 C8.67 10.68 8.34 9.36 8 8 C7.01 8 6.02 8 5 8 C2.3125 5.6875 2.3125 5.6875 0 3 C0 2.01 0 1.02 0 0 Z " fill="#6BA875" transform="translate(416,468)"/>
<path d="M0 0 C0.33 0.66 0.66 1.32 1 2 C-0.65 4.31 -2.3 6.62 -4 9 C-3.34 9.33 -2.68 9.66 -2 10 C-5.13532982 13.31449152 -8.09788366 15.67982272 -12 18 C-12.66 18.99 -13.32 19.98 -14 21 C-14.66 21 -15.32 21 -16 21 C-14.30404849 16.90563187 -11.43542593 13.80367754 -8.5625 10.5 C-4.12999697 5.37234698 -4.12999697 5.37234698 0 0 Z " fill="#E8F7E9" transform="translate(889,296)"/>
<path d="M0 0 C0.99 0.33 1.98 0.66 3 1 C1.27367637 3.06493703 -0.45593765 5.12696303 -2.1875 7.1875 C-2.67025391 7.76564453 -3.15300781 8.34378906 -3.65039062 8.93945312 C-6.6208382 12.46810562 -9.69015402 15.78696853 -13 19 C-13 18.01 -13 17.02 -13 16 C-12.34 16 -11.68 16 -11 16 C-11.33 15.01 -11.66 14.02 -12 13 C-10.54982079 10.40494247 -9.65361183 9.22409548 -6.8125 8.25 C-5.9153125 8.12625 -5.9153125 8.12625 -5 8 C-5 7.34 -5 6.68 -5 6 C-4.34 6 -3.68 6 -3 6 C-2.690625 5.195625 -2.38125 4.39125 -2.0625 3.5625 C-1 1 -1 1 0 0 Z " fill="#EAF8EC" transform="translate(702,347)"/>
<path d="M0 0 C1.98 0 3.96 0 6 0 C0.69530941 4.66812772 -5.53391282 5.38479564 -12.35546875 5.26953125 C-16.76267158 4.8203481 -20.8432317 3.48582356 -25 2 C-25 1.67 -25 1.34 -25 1 C-23.33388095 0.957279 -21.66617115 0.95936168 -20 1 C-19.67 1.33 -19.34 1.66 -19 2 C-17.58429877 2.08651611 -16.164405 2.10704904 -14.74609375 2.09765625 C-13.89208984 2.09443359 -13.03808594 2.09121094 -12.15820312 2.08789062 C-10.81145508 2.07532227 -10.81145508 2.07532227 -9.4375 2.0625 C-8.53580078 2.05798828 -7.63410156 2.05347656 -6.70507812 2.04882812 C-4.46998686 2.03700225 -2.23502563 2.0205222 0 2 C0 1.34 0 0.68 0 0 Z " fill="#73AC80" transform="translate(538,703)"/>
<path d="M0 0 C4.59961168 3.83300974 8.86682572 7.83258519 13.06640625 12.09765625 C15.58628497 14.57680966 18.24084351 16.79267481 21 19 C20.34 19.33 19.68 19.66 19 20 C16.00306862 19.00102287 14.97290587 18.34869747 13 16 C13 15.34 13 14.68 13 14 C12.34 14 11.68 14 11 14 C9.4140625 12.390625 9.4140625 12.390625 7.625 10.25 C5.66242273 7.93096298 3.7411705 5.74780716 1.5625 3.625 C0 2 0 2 0 0 Z " fill="#69A776" transform="translate(372,426)"/>
<path d="M0 0 C0.99 0.33 1.98 0.66 3 1 C2.67 2.65 2.34 4.3 2 6 C2.99 6.66 3.98 7.32 5 8 C5 8.66 5 9.32 5 10 C5.66 10 6.32 10 7 10 C7 10.66 7 11.32 7 12 C7.99 12 8.98 12 10 12 C10 12.99 10 13.98 10 15 C6.10082032 13.38462556 3.28706228 10.72075127 0.25 7.875 C-0.25660156 7.40707031 -0.76320313 6.93914063 -1.28515625 6.45703125 C-2.52719141 5.30873459 -3.76411494 4.15491328 -5 3 C-4.360625 2.690625 -3.72125 2.38125 -3.0625 2.0625 C-1.06389179 1.1654837 -1.06389179 1.1654837 0 0 Z " fill="#65AC71" transform="translate(460,650)"/>
<path d="M0 0 C0.33 0.99 0.66 1.98 1 3 C-0.3125 5.1875 -0.3125 5.1875 -2 7 C-2.66 7 -3.32 7 -4 7 C-3.67 8.65 -3.34 10.3 -3 12 C-5.67478244 13.6627026 -7.9995144 14.99983813 -11 16 C-10.50485982 11.65962225 -7.68886128 8.91387625 -4.9375 5.75 C-4.46505859 5.19570312 -3.99261719 4.64140625 -3.50585938 4.0703125 C-2.34341033 2.708251 -1.17252145 1.35340044 0 0 Z " fill="#66AA74" transform="translate(856,168)"/>
<path d="M0 0 C0.99 0.33 1.98 0.66 3 1 C1.60770997 2.73202093 0.21099444 4.46048484 -1.1875 6.1875 C-1.96480469 7.15042969 -2.74210938 8.11335937 -3.54296875 9.10546875 C-5.91808927 11.90350421 -8.37082777 14.4455467 -11 17 C-11.33 16.34 -11.66 15.68 -12 15 C-11.06694014 12.28564404 -10.37326623 11.21956837 -7.875 9.75 C-7.25625 9.5025 -6.6375 9.255 -6 9 C-6 8.01 -6 7.02 -6 6 C-3.5625 3.375 -3.5625 3.375 -1 1 C-0.67 0.67 -0.34 0.34 0 0 Z " fill="#68AB76" transform="translate(604,630)"/>
<path d="M0 0 C-0.47482435 4.27341914 -3.03077413 6.10319428 -6 9 C-7.2516467 11.08334635 -7.2516467 11.08334635 -8 13 C-8.33 13.66 -8.66 14.32 -9 15 C-10.98 15 -12.96 15 -15 15 C-13.60014836 13.36114929 -12.19920688 11.72321773 -10.79296875 10.08984375 C-9.55864988 8.65114965 -8.33253049 7.20539344 -7.11328125 5.75390625 C-6.49839844 5.03074219 -5.88351563 4.30757813 -5.25 3.5625 C-4.39148438 2.54349609 -4.39148438 2.54349609 -3.515625 1.50390625 C-2 0 -2 0 0 0 Z " fill="#E7EEF3" transform="translate(223,342)"/>
<path d="M0 0 C4.34220113 0.50102321 6.86803007 3.14037528 10 6 C10.99 7.485 10.99 7.485 12 9 C12.99 9.33 13.98 9.66 15 10 C16.39712274 11.95597184 17.73779907 13.95436401 19 16 C18.67 16.66 18.34 17.32 18 18 C12 12 6 6 0 0 Z " fill="#6CA97A" transform="translate(406,606)"/>
<path d="M0 0 C1.3125 1.875 1.3125 1.875 2.125 4.1875 C3.79682829 7.97111139 6.2986206 10.05767795 9.3125 12.875 C8.9825 13.535 8.6525 14.195 8.3125 14.875 C3.3125 9.875 -1.6875 4.875 -6.6875 -0.125 C-2.1921729 -1.4614486 -2.1921729 -1.4614486 0 0 Z " fill="#6BAA76" transform="translate(308.6875,508.125)"/>
<path d="M0 0 C0.66 0 1.32 0 2 0 C1.67515625 0.804375 1.67515625 0.804375 1.34375 1.625 C-1.54501849 9.75634835 -1.28475021 17.49967894 -1 26 C-3.23084647 23.76915353 -3.51868532 23.03960686 -4 20 C-3.96237715 12.80463071 -3.41681617 6.38796066 0 0 Z " fill="#75AC81" transform="translate(284,461)"/>
<path d="M0 0 C0.33 0.99 0.66 1.98 1 3 C0.34 3 -0.32 3 -1 3 C-1.0825 3.5775 -1.165 4.155 -1.25 4.75 C-2.2075139 7.6225417 -3.81428375 8.95089101 -6 11 C-6.33 11.66 -6.66 12.32 -7 13 C-7.66 13 -8.32 13 -9 13 C-9.28875 13.598125 -9.5775 14.19625 -9.875 14.8125 C-11 17 -11 17 -13 20 C-13.66 20 -14.32 20 -15 20 C-13.72271509 17.28614002 -12.3291531 14.96735062 -10.46875 12.6171875 C-9.98792969 12.00746094 -9.50710938 11.39773437 -9.01171875 10.76953125 C-8.51285156 10.14433594 -8.01398437 9.51914063 -7.5 8.875 C-7.00113281 8.24207031 -6.50226562 7.60914063 -5.98828125 6.95703125 C-4.064186 4.52740963 -2.1938523 2.1938523 0 0 Z " fill="#61A775" transform="translate(796,240)"/>
<path d="M0 0 C0.66 0.33 1.32 0.66 2 1 C0.8553125 2.299375 0.8553125 2.299375 -0.3125 3.625 C-2.17231591 5.82864743 -3.24521109 7.52107356 -4.5 10.1875 C-6.22204512 13.4163346 -7.75522 14.42145838 -11 16 C-11 11.61381654 -8.26543217 9.44824189 -5.5 6.3125 C-4.97535156 5.70599609 -4.45070313 5.09949219 -3.91015625 4.47460938 C-2.61333098 2.97736565 -1.30750638 1.48792528 0 0 Z " fill="#6DA978" transform="translate(840,187)"/>
<path d="M0 0 C0.66 0.33 1.32 0.66 2 1 C-7.41002278 12.52164009 -7.41002278 12.52164009 -12 18 C-12 15.37886292 -11.68707555 13.49064888 -11 11 C-10.34 11 -9.68 11 -9 11 C-9 10.34 -9 9.68 -9 9 C-7.5390625 7.59765625 -7.5390625 7.59765625 -5.625 6.0625 C-3.16098476 4.08013383 -1.79533563 2.69300345 0 0 Z " fill="#6AA976" transform="translate(567,675)"/>
<path d="M0 0 C0.99 0.66 1.98 1.32 3 2 C1.8966898 3.58393026 0.79231456 5.16711868 -0.3125 6.75 C-0.92738281 7.63171875 -1.54226563 8.5134375 -2.17578125 9.421875 C-2.77777344 10.27265625 -3.37976563 11.1234375 -4 12 C-4.52980469 12.76828125 -5.05960938 13.5365625 -5.60546875 14.328125 C-6.29576172 15.15570313 -6.29576172 15.15570313 -7 16 C-7.66 16 -8.32 16 -9 16 C-9 15.34 -9 14.68 -9 14 C-8.34 14 -7.68 14 -7 14 C-7.33 12.02 -7.66 10.04 -8 8 C-6.35 8.33 -4.7 8.66 -3 9 C-1.76078698 6.02588876 -0.69941596 3.14737182 0 0 Z " fill="#6BAC78" transform="translate(970,194)"/>
<path d="M0 0 C1.32 0.33 2.64 0.66 4 1 C-4.261959 11.55808656 -4.261959 11.55808656 -9 16 C-8.3936169 12.91357813 -7.41489705 10.84649121 -5.5625 8.3125 C-5.13066406 7.71050781 -4.69882812 7.10851562 -4.25390625 6.48828125 C-3 5 -3 5 -1 4 C-0.34786708 1.97536745 -0.34786708 1.97536745 0 0 Z " fill="#6DA979" transform="translate(625,604)"/>
<path d="M0 0 C0.99 0.33 1.98 0.66 3 1 C2.22914063 1.90363281 1.45828125 2.80726563 0.6640625 3.73828125 C-0.34904163 4.92961667 -1.36205788 6.12102683 -2.375 7.3125 C-2.88289062 7.90740234 -3.39078125 8.50230469 -3.9140625 9.11523438 C-4.40390625 9.69208984 -4.89375 10.26894531 -5.3984375 10.86328125 C-5.84880371 11.39219971 -6.29916992 11.92111816 -6.76318359 12.46606445 C-7.92874273 13.91162467 -8.96996304 15.45494456 -10 17 C-10.66 17 -11.32 17 -12 17 C-12 16.34 -12 15.68 -12 15 C-11.34 15 -10.68 15 -10 15 C-9.34 13.35 -8.68 11.7 -8 10 C-7.34 10 -6.68 10 -6 10 C-5.7525 9.46375 -5.505 8.9275 -5.25 8.375 C-3.70303025 5.43575748 -1.86985631 2.74245592 0 0 Z " fill="#6BA976" transform="translate(729,482)"/>
<path d="M0 0 C0.33 0.66 0.66 1.32 1 2 C-2.651893 7.41995647 -6.14889642 12.58990583 -11 17 C-11.66 16.67 -12.32 16.34 -13 16 C-12.09507812 14.89591797 -12.09507812 14.89591797 -11.171875 13.76953125 C-10.37265625 12.79371094 -9.5734375 11.81789063 -8.75 10.8125 C-7.96109375 9.84957031 -7.1721875 8.88664062 -6.359375 7.89453125 C-4.22415228 5.27499477 -2.10643639 2.64270803 0 0 Z " fill="#E5F5E5" transform="translate(905,277)"/>
<path d="M0 0 C0.33 0.66 0.66 1.32 1 2 C-1.35264864 6.99937836 -5.32444324 10.94178253 -9 15 C-9.80859375 13.359375 -9.80859375 13.359375 -10 11 C-8.41429339 8.87782068 -6.90709742 7.1166444 -5.0625 5.25 C-4.34030273 4.49009766 -4.34030273 4.49009766 -3.60351562 3.71484375 C-2.41346046 2.46587496 -1.20813387 1.2314897 0 0 Z " fill="#68A877" transform="translate(869,153)"/>
<path d="M0 0 C3.29865513 0.36651724 4.09849137 1.10606763 6.4375 3.625 C7.283125 4.40875 8.12875 5.1925 9 6 C11.760165 5.95020416 11.760165 5.95020416 14 5 C14 7.66666667 14 10.33333333 14 13 C11.66270866 11.02546836 9.33085338 9.04462531 7 7.0625 C6.33226562 6.49853516 5.66453125 5.93457031 4.9765625 5.35351562 C4.34492187 4.81533203 3.71328125 4.27714844 3.0625 3.72265625 C2.47597656 3.22515869 1.88945313 2.72766113 1.28515625 2.21508789 C0.86105469 1.81410889 0.43695312 1.41312988 0 1 C0 0.67 0 0.34 0 0 Z " fill="#E9F8EC" transform="translate(940,140)"/>
<path d="M0 0 C0.33 0.66 0.66 1.32 1 2 C-8.38412899 15.5241859 -8.38412899 15.5241859 -14 18 C-11.17934699 13.61085302 -8.12555317 9.5991251 -4.75 5.625 C-4.29109375 5.07972656 -3.8321875 4.53445313 -3.359375 3.97265625 C-2.24230754 2.64613864 -1.12154298 1.32273581 0 0 Z " fill="#E5F8E8" transform="translate(798,404)"/>
<path d="M0 0 C0.99 0.33 1.98 0.66 3 1 C2.56429687 1.4846875 2.12859375 1.969375 1.6796875 2.46875 C-2.47146757 7.14104575 -6.32827496 11.9429721 -10 17 C-10.33 16.01 -10.66 15.02 -11 14 C-10.07421875 12.2109375 -10.07421875 12.2109375 -8.6875 10.375 C-8.23761719 9.76398438 -7.78773438 9.15296875 -7.32421875 8.5234375 C-6 7 -6 7 -4 6 C-2.96986723 4.35178756 -1.96885372 2.68496298 -1 1 C-0.67 0.67 -0.34 0.34 0 0 Z " fill="#6CA978" transform="translate(845,345)"/>
<path d="M0 0 C6.09425346 3.78831972 11.49400055 8.41493284 17 13 C16.01 13.495 16.01 13.495 15 14 C11.2767933 12.7589311 9.75859975 10.75859975 7 8 C6.13375 7.484375 5.2675 6.96875 4.375 6.4375 C1.85481252 4.91212337 0.60063812 3.44307924 -1 1 C-0.67 0.67 -0.34 0.34 0 0 Z " fill="#6CAA7A" transform="translate(936,138)"/>
<path d="M0 0 C0 4.03223106 -1.64129026 5.80880447 -4 9 C-4.99 9.495 -4.99 9.495 -6 10 C-6.72693904 11.97888961 -7.39816251 13.97954558 -8 16 C-9.32 15.34 -10.64 14.68 -12 14 C-8.04 9.38 -4.08 4.76 0 0 Z " fill="#E8F8EA" transform="translate(572,672)"/>
<path d="M0 0 C0.66 0.33 1.32 0.66 2 1 C1.33333333 2.33333333 0.66666667 3.66666667 0 5 C-0.433125 6.0828125 -0.433125 6.0828125 -0.875 7.1875 C-2 9 -2 9 -4.0625 9.625 C-4.701875 9.74875 -5.34125 9.8725 -6 10 C-6.33 10.66 -6.66 11.32 -7 12 C-7.99 11.67 -8.98 11.34 -10 11 C-6.7 7.37 -3.4 3.74 0 0 Z " fill="#E8F7EC" transform="translate(839,356)"/>
<path d="M0 0 C0.33 0.99 0.66 1.98 1 3 C0.360625 3.61875 -0.27875 4.2375 -0.9375 4.875 C-5.14668062 9.07201536 -9.04656399 13.56422757 -13 18 C-13.66 17.67 -14.32 17.34 -15 17 C-14.33613281 16.27554688 -13.67226563 15.55109375 -12.98828125 14.8046875 C-8.55548526 9.95126123 -4.14115567 5.10742532 0 0 Z " fill="#71AC7C" transform="translate(827,203)"/>
<path d="M0 0 C0.54140625 0.72574219 1.0828125 1.45148437 1.640625 2.19921875 C4.12561007 5.14910997 6.73781133 7.40992095 9.75 9.8125 C10.73484375 10.60269531 11.7196875 11.39289062 12.734375 12.20703125 C13.48203125 12.79871094 14.2296875 13.39039063 15 14 C14.01 14.495 14.01 14.495 13 15 C7.4045986 10.71924631 2.24197704 6.65596939 -2 1 C-1.34 0.67 -0.68 0.34 0 0 Z " fill="#6DA979" transform="translate(498,689)"/>
<path d="M0 0 C0.33 0.66 0.66 1.32 1 2 C-0.28946305 3.79325326 -1.58164352 5.58455278 -2.875 7.375 C-3.59429688 8.37273438 -4.31359375 9.37046875 -5.0546875 10.3984375 C-7 13 -7 13 -9 15 C-9.99 14.67 -10.98 14.34 -12 14 C-11.38511719 13.32453125 -10.77023437 12.6490625 -10.13671875 11.953125 C-9.32847656 11.06109375 -8.52023437 10.1690625 -7.6875 9.25 C-6.88699219 8.36828125 -6.08648438 7.4865625 -5.26171875 6.578125 C-3.39083089 4.44550672 -1.65915714 2.29812057 0 0 Z " fill="#E6F6E8" transform="translate(647,583)"/>
<path d="M0 0 C5.72874335 1.90958112 10.64208412 4.96312618 14 10 C13.67 10.99 13.34 11.98 13 13 C8.66666667 8.66666667 4.33333333 4.33333333 0 0 Z " fill="#6DAB7B" transform="translate(288,495)"/>
<path d="M0 0 C2.86724686 0.57344937 3.8614515 0.8614515 6 3 C6.99 2.67 7.98 2.34 9 2 C8.979375 3.093125 8.95875 4.18625 8.9375 5.3125 C8.81455548 8.94384191 8.81455548 8.94384191 10 12 C9.34 12 8.68 12 8 12 C6.5625 10.13671875 6.5625 10.13671875 5 7.6875 C4.484375 6.88699219 3.96875 6.08648437 3.4375 5.26171875 C2.963125 4.51535156 2.48875 3.76898438 2 3 C1.34 2.01 0.68 1.02 0 0 Z " fill="#EAF1F4" transform="translate(765,207)"/>
<path d="M0 0 C0.33 0.99 0.66 1.98 1 3 C0.54625 3.4125 0.0925 3.825 -0.375 4.25 C-2.07727745 5.89689928 -2.07727745 5.89689928 -2.875 7.9375 C-4.3856157 10.70696212 -6.48652977 12.14796931 -9 14 C-9.66 13.67 -10.32 13.34 -11 13 C-7.37 8.71 -3.74 4.42 0 0 Z " fill="#E7FAEC" transform="translate(663,564)"/>
<path d="M0 0 C5.03163018 4.29785078 10.02718443 8.63425542 15 13 C14.01 13.33 13.02 13.66 12 14 C10.33333333 12.33333333 8.66666667 10.66666667 7 9 C6.113125 8.154375 5.22625 7.30875 4.3125 6.4375 C2.25006978 4.26358707 1.23265136 2.66230179 0 0 Z " fill="#6DA679" transform="translate(393,446)"/>
<path d="M0 0 C0.99 0.33 1.98 0.66 3 1 C3.33 2.98 3.66 4.96 4 7 C3.05125 6.979375 2.1025 6.95875 1.125 6.9375 C-1.90666283 6.77448174 -1.90666283 6.77448174 -4 8 C-3.67 6.68 -3.34 5.36 -3 4 C-2.34 4 -1.68 4 -1 4 C-0.67 2.68 -0.34 1.36 0 0 Z " fill="#E8ECEF" transform="translate(882,758)"/>
<path d="M0 0 C1.32 0.33 2.64 0.66 4 1 C1.03 4.63 -1.94 8.26 -5 12 C-5.33 11.01 -5.66 10.02 -6 9 C-4.1875 6 -4.1875 6 -2 3 C-1.34 2.01 -0.68 1.02 0 0 Z " fill="#68AC76" transform="translate(821,372)"/>
<path d="M0 0 C1.32 0 2.64 0 4 0 C4.33 0.99 4.66 1.98 5 3 C3.125 6.1875 3.125 6.1875 1 9 C0.67 9 0.34 9 0 9 C-0.87890625 2.84765625 -0.87890625 2.84765625 -1 1 C-0.67 0.67 -0.34 0.34 0 0 Z " fill="#DCE4EA" transform="translate(594,234)"/>
<path d="M0 0 C1.27514492 3.82543475 0.52740413 5.33423008 -1 9 C-2.625 10.875 -2.625 10.875 -4 12 C-4.99 11.67 -5.98 11.34 -7 11 C-4.69 7.37 -2.38 3.74 0 0 Z " fill="#E8EDF2" transform="translate(876,768)"/>
<path d="M0 0 C0.66 0.33 1.32 0.66 2 1 C-0.17044619 4.99819034 -2.75261673 7.83588297 -6 11 C-6.99 12.485 -6.99 12.485 -8 14 C-8.99 13.67 -9.98 13.34 -11 13 C-10.06027344 11.96939453 -10.06027344 11.96939453 -9.1015625 10.91796875 C-8.28429687 10.01691406 -7.46703125 9.11585938 -6.625 8.1875 C-5.81289063 7.29417969 -5.00078125 6.40085937 -4.1640625 5.48046875 C-1.90927093 3.00367326 -1.90927093 3.00367326 0 0 Z " fill="#E6F8EA" transform="translate(625,609)"/>
<path d="M0 0 C2.625 0 2.625 0 6 1 C8.31464229 3.46582388 10.1747373 6.15854494 12 9 C11.67 9.66 11.34 10.32 11 11 C9.16365304 9.35742342 7.3308593 7.71117305 5.5 6.0625 C4.97535156 5.59392578 4.45070313 5.12535156 3.91015625 4.64257812 C2.5878256 3.44904592 1.29166061 2.22665821 0 1 C0 0.67 0 0.34 0 0 Z " fill="#6CA876" transform="translate(318,523)"/>
<path d="M0 0 C-4 2.66666667 -8 5.33333333 -12 8 C-12.33 7.34 -12.66 6.68 -13 6 C-12.01 5.34 -11.02 4.68 -10 4 C-9.690625 3.319375 -9.38125 2.63875 -9.0625 1.9375 C-8 0 -8 0 -6.125 -0.8125 C-3.82705097 -1.01526021 -2.20746985 -0.60497605 0 0 Z " fill="#E8F8EA" transform="translate(333,412)"/>
<path d="M0 0 C1.32 0.66 2.64 1.32 4 2 C1.69 4.31 -0.62 6.62 -3 9 C-3.66 8.34 -4.32 7.68 -5 7 C-4.01 6.67 -3.02 6.34 -2 6 C-2 5.34 -2 4.68 -2 4 C-2.66 3.34 -3.32 2.68 -4 2 C-2.25 0.875 -2.25 0.875 0 0 Z " fill="#344556" transform="translate(214,345)"/>
<path d="M0 0 C2.21399303 3.79541663 3.00980198 7.75629421 4 12 C1.525 11.01 1.525 11.01 -1 10 C-1.125 3.375 -1.125 3.375 0 0 Z " fill="#374857" transform="translate(236,626)"/>
<path d="M0 0 C5.7099763 1.32790147 7.61085711 3.48114282 11 8 C11.66 8.66 12.32 9.32 13 10 C8.87731395 10 7.79669528 8.32277298 4.8125 5.5625 C3.91144531 4.73878906 3.01039063 3.91507813 2.08203125 3.06640625 C1.39496094 2.38449219 0.70789063 1.70257812 0 1 C0 0.67 0 0.34 0 0 Z " fill="#6FA97B" transform="translate(336,540)"/>
<path d="M0 0 C0.33 0.66 0.66 1.32 1 2 C-2.72346836 6.42094803 -6.29521038 10.57833482 -11 14 C-9.42219077 10.28954753 -7.09296752 7.70093616 -4.375 4.75 C-3.55773437 3.85796875 -2.74046875 2.9659375 -1.8984375 2.046875 C-1.27195312 1.37140625 -0.64546875 0.6959375 0 0 Z " fill="#E2F8E6" transform="translate(693,529)"/>
<path d="M0 0 C0.66 0.33 1.32 0.66 2 1 C1.21625 1.7425 0.4325 2.485 -0.375 3.25 C-2.99004397 5.71969943 -2.99004397 5.71969943 -4.0625 8.125 C-5.25409043 10.50818085 -6.8102258 11.54015053 -9 13 C-9.66 12.67 -10.32 12.34 -11 12 C-7.37 8.04 -3.74 4.08 0 0 Z " fill="#5FA474" transform="translate(748,298)"/>
<path d="M0 0 C0.66 0.66 1.32 1.32 2 2 C1.01 2.78375 0.02 3.5675 -1 4.375 C-2.485 5.674375 -2.485 5.674375 -4 7 C-4 7.66 -4 8.32 -4 9 C-5.375 10.625 -5.375 10.625 -7 12 C-7.66 12 -8.32 12 -9 12 C-7.50948318 7.39294801 -5.21457741 4.53603516 -2 1 C-1.34 0.67 -0.68 0.34 0 0 Z " fill="#354453" transform="translate(245,198)"/>
<path d="M0 0 C5.65253308 1.37031105 8.5113541 5.67689413 12 10 C11.67 10.66 11.34 11.32 11 12 C9.16364422 10.19047409 7.33083792 8.37759362 5.5 6.5625 C4.97535156 6.04623047 4.45070313 5.52996094 3.91015625 4.99804688 C2.58775448 3.68423213 1.29164432 2.34406495 0 1 C0 0.67 0 0.34 0 0 Z " fill="#6DA679" transform="translate(392,592)"/>
<path d="M0 0 C0.70125 0.78375 1.4025 1.5675 2.125 2.375 C5.09157086 5.08360818 7.1582516 6.01722715 11 7 C10.01 8.485 10.01 8.485 9 10 C5.78956118 8.61811547 3.95063635 7.07578097 1.75 4.375 C1.22921875 3.74335937 0.7084375 3.11171875 0.171875 2.4609375 C-0.21484375 1.97882812 -0.6015625 1.49671875 -1 1 C-0.67 0.67 -0.34 0.34 0 0 Z " fill="#EBFBEF" transform="translate(512,555)"/>
<path d="M0 0 C0.66 0 1.32 0 2 0 C0.55575365 3.23861303 -1.25772247 5.61969163 -3.625 8.25 C-4.25664063 8.95640625 -4.88828125 9.6628125 -5.5390625 10.390625 C-6.02117188 10.92171875 -6.50328125 11.4528125 -7 12 C-7.66 11.34 -8.32 10.68 -9 10 C-8.34 10 -7.68 10 -7 10 C-6.773125 9.46375 -6.54625 8.9275 -6.3125 8.375 C-4.54429911 5.17539839 -2.46329797 2.70962777 0 0 Z " fill="#71AA7C" transform="translate(752,456)"/>
<path d="M0 0 C0.33 1.32 0.66 2.64 1 4 C0.01 4.33 -0.98 4.66 -2 5 C-2 5.66 -2 6.32 -2 7 C-4.3125 9.625 -4.3125 9.625 -7 12 C-7.99 12 -8.98 12 -10 12 C-6.7 8.04 -3.4 4.08 0 0 Z " fill="#70AB7B" transform="translate(649,413)"/>
<path d="M0 0 C3.43198603 1.23932829 6.30325632 2.50301511 9 5 C9 5.99 9 6.98 9 8 C9.66 8.33 10.32 8.66 11 9 C8 9 8 9 5.95703125 7.28515625 C5.24933594 6.55167969 4.54164063 5.81820313 3.8125 5.0625 C3.09707031 4.33160156 2.38164062 3.60070312 1.64453125 2.84765625 C0 1 0 1 0 0 Z " fill="#E3F5E7" transform="translate(363,416)"/>
<path d="M0 0 C0.33 0.99 0.66 1.98 1 3 C-1.97 6.3 -4.94 9.6 -8 13 C-8 9.73483959 -7.7034489 7.82578784 -5.5625 5.3125 C-4 4 -4 4 -2 4 C-1.34 2.68 -0.68 1.36 0 0 Z " fill="#6CAB79" transform="translate(795,405)"/>
<path d="M0 0 C0.66 0.99 1.32 1.98 2 3 C1.401875 4.03125 0.80375 5.0625 0.1875 6.125 C-1.66393699 9.36007317 -3.36545286 12.64917836 -5 16 C-6.39211215 11.82366356 -4.9535579 10.21039485 -3.0625 6.3125 C-2.49660156 5.13300781 -1.93070312 3.95351563 -1.34765625 2.73828125 C-0.90292969 1.83464844 -0.45820312 0.93101562 0 0 Z " fill="#3D4B59" transform="translate(120,345)"/>
<path d="M0 0 C0.66 0.33 1.32 0.66 2 1 C-2.455 6.94 -2.455 6.94 -7 13 C-7.66 12.67 -8.32 12.34 -9 12 C-7.68858144 10.18671738 -6.37583526 8.37439486 -5.0625 6.5625 C-3.96615234 5.04849609 -3.96615234 5.04849609 -2.84765625 3.50390625 C-1 1 -1 1 0 0 Z " fill="#374554" transform="translate(141,311)"/>
<path d="M0 0 C0.99 0.33 1.98 0.66 3 1 C-0.3 4.96 -3.6 8.92 -7 13 C-7 9.36672806 -6.04413589 7.95264073 -4 5 C-3.01 4.34 -2.02 3.68 -1 3 C-0.67 2.01 -0.34 1.02 0 0 Z " fill="#6BA878" transform="translate(637,591)"/>
<path d="M0 0 C4.52615993 3.67832017 8.39424999 7.41086363 12 12 C9.11835799 10.66413946 6.74723292 9.16362669 4.3125 7.125 C3.71050781 6.63257813 3.10851562 6.14015625 2.48828125 5.6328125 C0.79512501 3.77522902 0.39815079 2.45260887 0 0 Z " fill="#6BA776" transform="translate(496,543)"/>
<path d="M0 0 C1.32 0.33 2.64 0.66 4 1 C1.69 3.64 -0.62 6.28 -3 9 C-3.33 8.01 -3.66 7.02 -4 6 C-3.34 6 -2.68 6 -2 6 C-1.855625 5.195625 -1.71125 4.39125 -1.5625 3.5625 C-1 1 -1 1 0 0 Z " fill="#66A971" transform="translate(708,506)"/>
<path d="M0 0 C0.33 0.99 0.66 1.98 1 3 C1.99 3.33 2.98 3.66 4 4 C2.35 5.98 0.7 7.96 -1 10 C-2.31223496 6.06329512 -1.24296256 3.87511856 0 0 Z " fill="#244549" transform="translate(732,308)"/>
<path d="M0 0 C0 0.66 0 1.32 0 2 C-2.91708924 3.98362069 -4.12380904 3.9876191 -7.75 3.625 C-8.8225 3.41875 -9.895 3.2125 -11 3 C-4.33333333 -1.44444444 -4.33333333 -1.44444444 0 0 Z " fill="#374656" transform="translate(232,250)"/>
<path d="M0 0 C1.32 0.33 2.64 0.66 4 1 C1.36 3.97 -1.28 6.94 -4 10 C-4 5.75354935 -2.18249194 3.61475228 0 0 Z " fill="#E9F9E8" transform="translate(822,204)"/>
<path d="M0 0 C3.3 0.99 6.6 1.98 10 3 C9.67 4.65 9.34 6.3 9 8 C5.05175551 5.54331454 2.84600997 3.79467996 0 0 Z " fill="#E7F7ED" transform="translate(926,128)"/>
<path d="M0 0 C0 0.66 0 1.32 0 2 C-6.27 1.67 -12.54 1.34 -19 1 C-19 0.67 -19 0.34 -19 0 C-16.95920995 -0.1968121 -14.91729993 -0.38202831 -12.875 -0.5625 C-11.73804688 -0.66691406 -10.60109375 -0.77132812 -9.4296875 -0.87890625 C-6.11102007 -0.99608016 -3.2437314 -0.6655072 0 0 Z " fill="#DBF2E0" transform="translate(919,122)"/>
<path d="M0 0 C0.66 0.33 1.32 0.66 2 1 C-0.57784846 3.64752004 -2.91648098 5.94432065 -6 8 C-6.99 7.01 -7.98 6.02 -9 5 C-7.54735962 4.1361871 -6.0876837 3.28419546 -4.625 2.4375 C-3.40683594 1.72400391 -3.40683594 1.72400391 -2.1640625 0.99609375 C-1.44992187 0.66738281 -0.73578125 0.33867188 0 0 Z " fill="#E1E7ED" transform="translate(823,823)"/>
<path d="M0 0 C0.33 0.66 0.66 1.32 1 2 C-0.3125 4.625 -0.3125 4.625 -2 7 C-2.66 7 -3.32 7 -4 7 C-4.66 8.32 -5.32 9.64 -6 11 C-6.99 11 -7.98 11 -9 11 C-6.03 7.37 -3.06 3.74 0 0 Z " fill="#E1F7E6" transform="translate(613,623)"/>
<path d="M0 0 C0.33 0.99 0.66 1.98 1 3 C0.01 3.33 -0.98 3.66 -2 4 C-2.309375 4.78375 -2.61875 5.5675 -2.9375 6.375 C-4.14208614 9.35103635 -5.33158609 10.31000453 -8 12 C-7.41463247 8.33939179 -5.916761 6.45464836 -3.4375 3.75 C-2.79683594 3.04359375 -2.15617188 2.3371875 -1.49609375 1.609375 C-0.75552734 0.81273437 -0.75552734 0.81273437 0 0 Z " fill="#E7F7E9" transform="translate(955,218)"/>
<path d="M0 0 C0.99 0.33 1.98 0.66 3 1 C0.69 3.64 -1.62 6.28 -4 9 C-4.66 8.34 -5.32 7.68 -6 7 C-5.34 6.67 -4.68 6.34 -4 6 C-3.67 5.175 -3.34 4.35 -3 3.5 C-2 1 -2 1 0 0 Z " fill="#E7FAEA" transform="translate(622,442)"/>
<path d="M0 0 C0.99 0.33 1.98 0.66 3 1 C0.36 3.97 -2.28 6.94 -5 10 C-5.66 9.34 -6.32 8.68 -7 8 C-6.01 7.67 -5.02 7.34 -4 7 C-2.78130071 4.49552484 -2.78130071 4.49552484 -2 2 C-1.34 2 -0.68 2 0 2 C0 1.34 0 0.68 0 0 Z " fill="#70A979" transform="translate(831,362)"/>
<path d="M0 0 C0.99 0.33 1.98 0.66 3 1 C1.54744301 4.82946843 -0.42895561 6.12050295 -4 8 C-4 4.09161134 -2.49432124 2.88405893 0 0 Z " fill="#EAF1F7" transform="translate(142,306)"/>
<path d="M0 0 C0.62390625 0.18820313 1.2478125 0.37640625 1.890625 0.5703125 C0.91496388 1.73991237 -0.065 2.90592427 -1.046875 4.0703125 C-1.59214844 4.72 -2.13742187 5.3696875 -2.69921875 6.0390625 C-3.16457031 6.544375 -3.62992188 7.0496875 -4.109375 7.5703125 C-4.439375 7.5703125 -4.769375 7.5703125 -5.109375 7.5703125 C-5.33990997 4.72704786 -5.46840601 3.10885901 -3.859375 0.6953125 C-2.109375 -0.4296875 -2.109375 -0.4296875 0 0 Z " fill="#EAF6EC" transform="translate(846.109375,178.4296875)"/>
<path d="M0 0 C0.66 0 1.32 0 2 0 C0.4169423 4.2742558 -2.50568404 6.26531794 -6 9 C-6.33 8.01 -6.66 7.02 -7 6 C-6.401875 5.7525 -5.80375 5.505 -5.1875 5.25 C-2.71222841 3.83555909 -1.66569196 2.27139812 0 0 Z " fill="#72AB7B" transform="translate(551,694)"/>
<path d="M0 0 C-1.65 1.98 -3.3 3.96 -5 6 C-5.66 5.34 -6.32 4.68 -7 4 C-7 3.01 -7 2.02 -7 1 C-4.53721199 -0.231394 -2.7204945 -0.07159196 0 0 Z " fill="#E3F0E3" transform="translate(313,429)"/>
<path d="M0 0 C1 3 1 3 1 6 C-0.98 6.66 -2.96 7.32 -5 8 C-3.8141763 4.62496331 -2.72426311 2.35277269 0 0 Z " fill="#334354" transform="translate(149,301)"/>
<path d="M0 0 C2.64 0 5.28 0 8 0 C4.74147635 2.1723491 1.40755272 4.07119658 -2 6 C-1.34 4.02 -0.68 2.04 0 0 Z " fill="#E8FBEB" transform="translate(892,123)"/>
<path d="M0 0 C-2.97 2.475 -2.97 2.475 -6 5 C-8 2 -8 2 -8 0 C-4.94736336 -0.98120464 -3.05263664 -0.98120464 0 0 Z " fill="#3C4C5E" transform="translate(667,793)"/>
<path d="M0 0 C1.14926266 0.95421808 2.29430541 1.91352045 3.4375 2.875 C4.07558594 3.40867187 4.71367187 3.94234375 5.37109375 4.4921875 C7 6 7 6 8 8 C4.54074837 6.7508258 1.85306797 5.32472205 -1 3 C-0.67 2.01 -0.34 1.02 0 0 Z " fill="#E4F9EB" transform="translate(443,641)"/>
<path d="M0 0 C1.12894876 0.93274109 2.25300876 1.87140122 3.375 2.8125 C4.00148438 3.33457031 4.62796875 3.85664062 5.2734375 4.39453125 C7 6 7 6 9 9 C7.35 8.67 5.7 8.34 4 8 C3.67 7.01 3.34 6.02 3 5 C2.01 4.34 1.02 3.68 0 3 C0 2.01 0 1.02 0 0 Z " fill="#71AC7C" transform="translate(509,555)"/>
<path d="M0 0 C1.32 0.33 2.64 0.66 4 1 C1.69 3.64 -0.62 6.28 -3 9 C-3.33 8.01 -3.66 7.02 -4 6 C-2.0625 2.8125 -2.0625 2.8125 0 0 Z " fill="#E6F8EA" transform="translate(548,529)"/>
<path d="M0 0 C0.6875 1.6875 0.6875 1.6875 1 4 C-0.375 6.75 -0.375 6.75 -2 9 C-2.33 9 -2.66 9 -3 9 C-3 7.35 -3 5.7 -3 4 C-3.66 4 -4.32 4 -5 4 C-5 3.34 -5 2.68 -5 2 C-3.68 2 -2.36 2 -1 2 C-0.67 1.34 -0.34 0.68 0 0 Z " fill="#E8EBF0" transform="translate(119,344)"/>
<path d="M0 0 C0.33 0.99 0.66 1.98 1 3 C-0.875 5.5625 -0.875 5.5625 -3 8 C-3.33 8.66 -3.66 9.32 -4 10 C-4.99 10 -5.98 10 -7 10 C-5.33248852 6.05860922 -2.77289351 3.2107188 0 0 Z " fill="#E0F6E4" transform="translate(856,335)"/>
<path d="M0 0 C2.64 1.98 5.28 3.96 8 6 C6.02 6.99 6.02 6.99 4 8 C0 3.375 0 3.375 0 0 Z " fill="#364657" transform="translate(743,187)"/>
<path d="M0 0 C0.33 0 0.66 0 1 0 C1 3.96 1 7.92 1 12 C0.01 11.67 -0.98 11.34 -2 11 C-2.24042276 6.91281305 -1.42258812 3.82320557 0 0 Z " fill="#65AE70" transform="translate(973,182)"/>
<path d="M0 0 C-0.66 0 -1.32 0 -2 0 C-2.66 1.32 -3.32 2.64 -4 4 C-6.475 3.01 -6.475 3.01 -9 2 C-5.945634 -1.054366 -3.9532319 -1.22686507 0 0 Z " fill="#3E4F5F" transform="translate(593,153)"/>
<path d="M0 0 C1.98 0.99 1.98 0.99 4 2 C4 3.32 4 4.64 4 6 C3.01 6 2.02 6 1 6 C0 3 0 3 0 0 Z " fill="#374757" transform="translate(554,126)"/>
<path d="M0 0 C0.33 0.99 0.66 1.98 1 3 C-1.31 5.31 -3.62 7.62 -6 10 C-6.66 9.67 -7.32 9.34 -8 9 C-5.36 6.03 -2.72 3.06 0 0 Z " fill="#E1F6E2" transform="translate(771,436)"/>
<path d="M0 0 C0.33 0 0.66 0 1 0 C1 1.65 1 3.3 1 5 C0.360625 5.12375 -0.27875 5.2475 -0.9375 5.375 C-1.9584375 5.684375 -1.9584375 5.684375 -3 6 C-3.33 6.66 -3.66 7.32 -4 8 C-4.33 7.34 -4.66 6.68 -5 6 C-3.35830472 3.97945196 -1.69088222 1.97956942 0 0 Z " fill="#EBF7EE" transform="translate(812,388)"/>
<path d="M0 0 C0 3.21534057 -0.26476072 4.35582586 -2 7 C-4.625 8.75 -4.625 8.75 -7 10 C-5.33248852 6.05860922 -2.77289351 3.2107188 0 0 Z " fill="#61A579" transform="translate(757,287)"/>
<path d="M0 0 C0.66 0.33 1.32 0.66 2 1 C2 1.99 2 2.98 2 4 C3.32 4.33 4.64 4.66 6 5 C5.67 5.66 5.34 6.32 5 7 C2.36 5.68 -0.28 4.36 -3 3 C-2.01 2.01 -1.02 1.02 0 0 Z " fill="#DFE5EB" transform="translate(712,163)"/>
<path d="M0 0 C0.66 0 1.32 0 2 0 C3.32 2.97 4.64 5.94 6 9 C2 7 2 7 1 5 C1.33 4.34 1.66 3.68 2 3 C1.34 3 0.68 3 0 3 C0 2.01 0 1.02 0 0 Z " fill="#3A4857" transform="translate(288,813)"/>
<path d="M0 0 C0.66 1.32 1.32 2.64 2 4 C0.1875 5.5625 0.1875 5.5625 -2 7 C-2.99 6.67 -3.98 6.34 -5 6 C-3.35 4.02 -1.7 2.04 0 0 Z " fill="#E8F4E8" transform="translate(634,598)"/>
<path d="M0 0 C2.92090003 1.30936898 4.75619462 2.75619462 7 5 C7.99 5.33 8.98 5.66 10 6 C9.67 6.99 9.34 7.98 9 9 C7.87105124 8.06725891 6.74699124 7.12859878 5.625 6.1875 C4.99851562 5.66542969 4.37203125 5.14335938 3.7265625 4.60546875 C2 3 2 3 0 0 Z " fill="#72AB7C" transform="translate(381,582)"/>
<path d="M0 0 C0.66 0 1.32 0 2 0 C2 0.99 2 1.98 2 3 C2.9590625 3.1546875 2.9590625 3.1546875 3.9375 3.3125 C4.618125 3.539375 5.29875 3.76625 6 4 C6.33 4.99 6.66 5.98 7 7 C3.74456771 6.65120368 2.98126893 5.97866739 0.75 3.4375 C-0.11625 2.2309375 -0.11625 2.2309375 -1 1 C-0.67 0.67 -0.34 0.34 0 0 Z " fill="#63A970" transform="translate(357,557)"/>
<path d="M0 0 C0.66 0 1.32 0 2 0 C1.67 1.98 1.34 3.96 1 6 C-0.98 6 -2.96 6 -5 6 C-3.38405168 3.95880212 -1.7143618 1.95927063 0 0 Z " fill="#64A972" transform="translate(527,558)"/>
<path d="M0 0 C0.66 0.33 1.32 0.66 2 1 C0.50902342 4.7952131 -1.75700849 6.61042731 -5 9 C-4.42647107 5.12867972 -2.51295648 2.91827204 0 0 Z " fill="#69AA76" transform="translate(539,544)"/>
<path d="M0 0 C0 3 0 3 -1.53125 4.60546875 C-2.1809375 5.12753906 -2.830625 5.64960938 -3.5 6.1875 C-4.1496875 6.71730469 -4.799375 7.24710937 -5.46875 7.79296875 C-5.9740625 8.19128906 -6.479375 8.58960938 -7 9 C-7.66 8.67 -8.32 8.34 -9 8 C-6.03 5.36 -3.06 2.72 0 0 Z " fill="#64AB72" transform="translate(659,404)"/>
<path d="M0 0 C-1.32 1.32 -2.64 2.64 -4 4 C-4.99 3.34 -5.98 2.68 -7 2 C-7 1.34 -7 0.68 -7 0 C-4.3333581 -1.33332095 -2.83319697 -0.67102033 0 0 Z " fill="#EDF9F0" transform="translate(665,395)"/>
<path d="M0 0 C0.66 0.33 1.32 0.66 2 1 C-0.31 3.64 -2.62 6.28 -5 9 C-5 6.29745539 -4.96569331 4.49470772 -4 2 C-2.0625 0.6875 -2.0625 0.6875 0 0 Z " fill="#6DA97A" transform="translate(880,305)"/>
<path d="M0 0 C0.99 0.33 1.98 0.66 3 1 C3 1.66 3 2.32 3 3 C3.66 3 4.32 3 5 3 C5 3.99 5 4.98 5 6 C2.11562221 4.70700306 0.12780579 3.34058637 -2 1 C-1.34 0.67 -0.68 0.34 0 0 Z " fill="#394958" transform="translate(260,901)"/>
<path d="M0 0 C0.66 0 1.32 0 2 0 C2.99 2.31 3.98 4.62 5 7 C3 6.33333333 1 5.66666667 -1 5 C-0.67 3.35 -0.34 1.7 0 0 Z " fill="#E9F0F5" transform="translate(231,873)"/>
<path d="M0 0 C0.33 0.99 0.66 1.98 1 3 C0.360625 3.268125 -0.27875 3.53625 -0.9375 3.8125 C-3.33131686 4.88667752 -3.33131686 4.88667752 -4 8 C-4.66 8 -5.32 8 -6 8 C-4.55746343 4.63408134 -2.66735273 2.48952921 0 0 Z " fill="#E4F5E8" transform="translate(585,657)"/>
<path d="M0 0 C2.31 0.66 4.62 1.32 7 2 C7 3.65 7 5.3 7 7 C5.83040013 6.02433888 4.66438823 5.044375 3.5 4.0625 C2.8503125 3.51722656 2.200625 2.97195313 1.53125 2.41015625 C1.0259375 1.94480469 0.520625 1.47945312 0 1 C0 0.67 0 0.34 0 0 Z " fill="#77B181" transform="translate(436,634)"/>
<path d="M0 0 C0.33 0.66 0.66 1.32 1 2 C0.22265625 3.7265625 0.22265625 3.7265625 -0.9375 5.625 C-1.618125 6.73875 -2.29875 7.8525 -3 9 C-3.99 8.34 -4.98 7.68 -6 7 C-4.02 4.69 -2.04 2.38 0 0 Z " fill="#DFF5E4" transform="translate(710,508)"/>
<path d="M0 0 C0.66 0.99 1.32 1.98 2 3 C0.37660195 4.70884005 -1.29319053 6.37446717 -3 8 C-3.66 8 -4.32 8 -5 8 C-3.62845496 5.04590299 -2.01136276 2.55991624 0 0 Z " fill="#E9F5E8" transform="translate(730,484)"/>
<path d="M0 0 C1.98 0.99 1.98 0.99 4 2 C3.67 2.66 3.34 3.32 3 4 C3.66 4.66 4.32 5.32 5 6 C4.34 6 3.68 6 3 6 C2.67 6.66 2.34 7.32 2 8 C2 7.34 2 6.68 2 6 C1.34 6 0.68 6 0 6 C0 4.02 0 2.04 0 0 Z " fill="#283746" transform="translate(111,465)"/>
<path d="M0 0 C1.14926266 0.95421808 2.29430541 1.91352045 3.4375 2.875 C4.07558594 3.40867187 4.71367187 3.94234375 5.37109375 4.4921875 C7 6 7 6 8 8 C6.68 8 5.36 8 4 8 C3.566875 7.0409375 3.566875 7.0409375 3.125 6.0625 C2.17176549 3.84793921 2.17176549 3.84793921 0 3 C0 2.01 0 1.02 0 0 Z " fill="#72A97C" transform="translate(408,460)"/>
<path d="M0 0 C1.17219543 0.78345715 2.33763668 1.57702836 3.5 2.375 C4.47453125 3.03628906 4.47453125 3.03628906 5.46875 3.7109375 C5.9740625 4.13632812 6.479375 4.56171875 7 5 C7 5.66 7 6.32 7 7 C5.68 7 4.36 7 3 7 C0 2.92857143 0 2.92857143 0 0 Z " fill="#71AD7E" transform="translate(358,413)"/>
<path d="M0 0 C0.66 0 1.32 0 2 0 C1.71125 0.556875 1.4225 1.11375 1.125 1.6875 C-0.0413253 4.08494645 -1.0339881 6.51596939 -2 9 C-2.66 8.01 -3.32 7.02 -4 6 C-2.7260411 3.96166576 -1.38938077 1.96147874 0 0 Z " fill="#354355" transform="translate(129,328)"/>
<path d="M0 0 C-0.33 0.99 -0.66 1.98 -1 3 C-4.0625 4.1875 -4.0625 4.1875 -7 5 C-6.67 3.68 -6.34 2.36 -6 1 C-3.92446352 0.4465236 -2.15634036 0 0 0 Z " fill="#E3E8ED" transform="translate(529,912)"/>
<path d="M0 0 C1.5 1 1.5 1 3 3 C3.27345479 5.71846235 3.13491285 8.25677199 3 11 C2.67 11 2.34 11 2 11 C0.57741188 7.17679443 -0.24042276 4.08718695 0 0 Z " fill="#435260" transform="translate(892,617)"/>
<path d="M0 0 C0.33 0.66 0.66 1.32 1 2 C0.21654285 3.17219543 -0.57702836 4.33763668 -1.375 5.5 C-1.81585937 6.1496875 -2.25671875 6.799375 -2.7109375 7.46875 C-3.13632812 7.9740625 -3.56171875 8.479375 -4 9 C-4.66 9 -5.32 9 -6 9 C-4.47291037 5.56404834 -2.40072955 2.88087546 0 0 Z " fill="#DDF4E2" transform="translate(742,470)"/>
<path d="M0 0 C0.99 0.33 1.98 0.66 3 1 C1.02 3.31 -0.96 5.62 -3 8 C-3.33 6.68 -3.66 5.36 -4 4 C-2.0625 1.75 -2.0625 1.75 0 0 Z " fill="#68AA76" transform="translate(738,472)"/>
<path d="M0 0 C0.99 0.33 1.98 0.66 3 1 C2.01 1.66 1.02 2.32 0 3 C-1.19232613 5.05003955 -1.19232613 5.05003955 -2 7 C-2.99 6.67 -3.98 6.34 -5 6 C-3.35 4.02 -1.7 2.04 0 0 Z " fill="#6AAA75" transform="translate(609,461)"/>
<path d="M0 0 C-1 3 -1 3 -4 5 C-4.99 4.67 -5.98 4.34 -7 4 C-7 3.34 -7 2.68 -7 2 C-2.25 0 -2.25 0 0 0 Z " fill="#DFE6E9" transform="translate(247,329)"/>
<path d="M0 0 C1.134375 0.020625 2.26875 0.04125 3.4375 0.0625 C2.14784824 1.43812854 0.81060707 2.77016393 -0.5625 4.0625 C-1.2225 4.0625 -1.8825 4.0625 -2.5625 4.0625 C-2.5625 3.4025 -2.5625 2.7425 -2.5625 2.0625 C-3.2225 1.7325 -3.8825 1.4025 -4.5625 1.0625 C-3.5625 0.0625 -3.5625 0.0625 0 0 Z " fill="#E8EEF2" transform="translate(184.5625,267.9375)"/>
<path d="M0 0 C0.99 0.33 1.98 0.66 3 1 C1.02 3.31 -0.96 5.62 -3 8 C-3.33 7.01 -3.66 6.02 -4 5 C-2.0625 2.3125 -2.0625 2.3125 0 0 Z " fill="#E4F9E9" transform="translate(877,140)"/>
<path d="M0 0 C1.32 0.99 2.64 1.98 4 3 C1.36 3.66 -1.28 4.32 -4 5 C-4 4.34 -4 3.68 -4 3 C-2 1.375 -2 1.375 0 0 Z " fill="#E6EDF3" transform="translate(555,818)"/>
<path d="M0 0 C0.99 0.33 1.98 0.66 3 1 C3.6875 3.0625 3.6875 3.0625 4 5 C3.01 5 2.02 5 1 5 C-0.6875 3 -0.6875 3 -2 1 C-1.34 0.67 -0.68 0.34 0 0 Z " fill="#72B383" transform="translate(470,664)"/>
<path d="M0 0 C0.99 0.33 1.98 0.66 3 1 C1.38405168 3.04119788 -0.2856382 5.04072937 -2 7 C-2.66 7 -3.32 7 -4 7 C-4 6.34 -4 5.68 -4 5 C-3.34 5 -2.68 5 -2 5 C-1.7834375 4.0409375 -1.7834375 4.0409375 -1.5625 3.0625 C-1 1 -1 1 0 0 Z " fill="#6EAA7A" transform="translate(695,523)"/>
<path d="M0 0 C2.31 1.98 4.62 3.96 7 6 C3.86248779 6 2.60242414 5.64820195 0 4 C-0.33 3.01 -0.66 2.02 -1 1 C-0.67 0.67 -0.34 0.34 0 0 Z " fill="#67A976" transform="translate(446,496)"/>
<path d="M0 0 C0.66 0 1.32 0 2 0 C0.55746343 3.36591866 -1.33264727 5.51047079 -4 8 C-4 6.68 -4 5.36 -4 4 C-3.34 4 -2.68 4 -2 4 C-1.34 2.68 -0.68 1.36 0 0 Z " fill="#6BAB79" transform="translate(891,291)"/>
<path d="M0 0 C-1.44253657 3.36591866 -3.33264727 5.51047079 -6 8 C-6 4 -6 4 -4.125 1.75 C-2 0 -2 0 0 0 Z " fill="#1F4243" transform="translate(767,274)"/>
<path d="M0 0 C0.99 0 1.98 0 3 0 C1.63016497 3.16115776 1.0109362 3.9927092 -2 6 C-1.125 1.125 -1.125 1.125 0 0 Z " fill="#64AB73" transform="translate(933,240)"/>
<path d="M0 0 C-3.96 1.98 -3.96 1.98 -8 4 C-8.33 3.34 -8.66 2.68 -9 2 C-4.5 -1.125 -4.5 -1.125 0 0 Z " fill="#354553" transform="translate(256,194)"/>
<path d="M0 0 C0.99 0.33 1.98 0.66 3 1 C1.35 2.65 -0.3 4.3 -2 6 C-2.33 4.68 -2.66 3.36 -3 2 C-2.01 1.34 -1.02 0.68 0 0 Z " fill="#E8F8EC" transform="translate(838,186)"/>
<path d="M0 0 C0.99 0.33 1.98 0.66 3 1 C3.33 2.65 3.66 4.3 4 6 C2.35 5.01 0.7 4.02 -1 3 C-0.67 2.01 -0.34 1.02 0 0 Z " fill="#EBF0F6" transform="translate(747,187)"/>
<path d="M0 0 C1.98 0 3.96 0 6 0 C6.33 1.32 6.66 2.64 7 4 C4.36 3.34 1.72 2.68 -1 2 C-0.67 1.34 -0.34 0.68 0 0 Z " fill="#DAE0E7" transform="translate(685,154)"/>
</svg>
